<svg xmlns="http://www.w3.org/2000/svg" viewBox="0 0 64 64"><g id="Cash_on_Delivery_Option" data-name="Cash on Delivery Option"><rect x="37" y="2" width="10" height="14" style="fill:none;stroke:#ffa401;stroke-linecap:round;stroke-linejoin:round;stroke-width:2px"/><line x1="51" y1="33" x2="57" y2="33" style="fill:none;stroke:#ffa401;stroke-linecap:round;stroke-linejoin:round;stroke-width:2px"/><line x1="51" y1="37" x2="57" y2="37" style="fill:none;stroke:#ffa401;stroke-linecap:round;stroke-linejoin:round;stroke-width:2px"/><rect x="2" y="37" width="46" height="25" style="fill:none;stroke:#ffa401;stroke-linecap:round;stroke-linejoin:round;stroke-width:2px"/><path d="M62,4V40a2.0059,2.0059,0,0,1-2,2H48V37H22V4a2.0059,2.0059,0,0,1,2-2H60A2.0059,2.0059,0,0,1,62,4Z" style="fill:none;stroke:#ffa401;stroke-linecap:round;stroke-linejoin:round;stroke-width:2px"/><line x1="6" y1="41" x2="10" y2="41" style="fill:none;stroke:#ffa401;stroke-linecap:round;stroke-linejoin:round;stroke-width:2px"/><line x1="6" y1="58" x2="10" y2="58" style="fill:none;stroke:#ffa401;stroke-linecap:round;stroke-linejoin:round;stroke-width:2px"/><line x1="40" y1="41" x2="44" y2="41" style="fill:none;stroke:#ffa401;stroke-linecap:round;stroke-linejoin:round;stroke-width:2px"/><line x1="40" y1="58" x2="44" y2="58" style="fill:none;stroke:#ffa401;stroke-linecap:round;stroke-linejoin:round;stroke-width:2px"/><circle cx="25" cy="49.5" r="9" style="fill:none;stroke:#ffa401;stroke-linecap:round;stroke-linejoin:round;stroke-width:2px"/><path d="M28.5625,54.69a2.7276,2.7276,0,0,1-1.875.81c-2.07,0-3.75-2.6925-3.75-6s1.68-6,3.75-6a2.7276,2.7276,0,0,1,1.875.81" style="fill:none;stroke:#ffa401;stroke-linecap:round;stroke-linejoin:round;stroke-width:2px"/><line x1="20.5" y1="48" x2="27.25" y2="48" style="fill:none;stroke:#ffa401;stroke-linecap:round;stroke-linejoin:round;stroke-width:2px"/><line x1="20.5" y1="51" x2="27.25" y2="51" style="fill:none;stroke:#ffa401;stroke-linecap:round;stroke-linejoin:round;stroke-width:2px"/></g></svg>