<svg xmlns="http://www.w3.org/2000/svg" viewBox="0 0 64 64"><g id="Easy_Replacement_Refund" data-name="Easy Replacement/Refund"><line x1="9" y1="16" x2="15" y2="16" style="fill:none;stroke:#ffa401;stroke-linecap:round;stroke-linejoin:round;stroke-width:2px"/><line x1="9" y1="32" x2="15" y2="32" style="fill:none;stroke:#ffa401;stroke-linecap:round;stroke-linejoin:round;stroke-width:2px"/><line x1="55" y1="16" x2="49" y2="16" style="fill:none;stroke:#ffa401;stroke-linecap:round;stroke-linejoin:round;stroke-width:2px"/><polyline points="45 36 59 36 59 12 5 12 5 36 37 36" style="fill:none;stroke:#ffa401;stroke-linecap:round;stroke-linejoin:round;stroke-width:2px"/><path d="M37,43V36a4,4,0,0,1,4-4h0a4,4,0,0,1,4,4V46" style="fill:none;stroke:#ffa401;stroke-linecap:round;stroke-linejoin:round;stroke-width:2px"/><polyline points="37 43 37 36 19 36 19 46" style="fill:none;stroke:#ffa401;stroke-linecap:round;stroke-linejoin:round;stroke-width:2px"/><polyline points="45 46 42 56 22 56 19 46" style="fill:none;stroke:#ffa401;stroke-linecap:round;stroke-linejoin:round;stroke-width:2px"/><path d="M29,53h0a6,6,0,0,1,6-6h2" style="fill:none;stroke:#ffa401;stroke-linecap:round;stroke-linejoin:round;stroke-width:2px"/><line x1="55" y1="32" x2="49" y2="32" style="fill:none;stroke:#ffa401;stroke-linecap:round;stroke-linejoin:round;stroke-width:2px"/><rect x="18" y="56" width="27" height="6" style="fill:none;stroke:#ffa401;stroke-linecap:round;stroke-linejoin:round;stroke-width:2px"/><line x1="12" y1="2" x2="12" y2="8" style="fill:none;stroke:#ffa401;stroke-linecap:round;stroke-linejoin:round;stroke-width:2px"/><line x1="16" y1="2" x2="16" y2="5" style="fill:none;stroke:#ffa401;stroke-linecap:round;stroke-linejoin:round;stroke-width:2px"/><line x1="8" y1="5" x2="8" y2="8" style="fill:none;stroke:#ffa401;stroke-linecap:round;stroke-linejoin:round;stroke-width:2px"/><line x1="52" y1="2" x2="52" y2="8" style="fill:none;stroke:#ffa401;stroke-linecap:round;stroke-linejoin:round;stroke-width:2px"/><line x1="56" y1="5" x2="56" y2="8" style="fill:none;stroke:#ffa401;stroke-linecap:round;stroke-linejoin:round;stroke-width:2px"/><line x1="48" y1="2" x2="48" y2="5" style="fill:none;stroke:#ffa401;stroke-linecap:round;stroke-linejoin:round;stroke-width:2px"/><circle cx="32" cy="24" r="9" style="fill:none;stroke:#ffa401;stroke-linecap:round;stroke-linejoin:round;stroke-width:2px"/><path d="M35.5625,29.19a2.7276,2.7276,0,0,1-1.875.81c-2.07,0-3.75-2.6925-3.75-6s1.68-6,3.75-6a2.7276,2.7276,0,0,1,1.875.81" style="fill:none;stroke:#ffa401;stroke-linecap:round;stroke-linejoin:round;stroke-width:2px"/><line x1="27.5" y1="22.5" x2="34.25" y2="22.5" style="fill:none;stroke:#ffa401;stroke-linecap:round;stroke-linejoin:round;stroke-width:2px"/><line x1="27.5" y1="25.5" x2="34.25" y2="25.5" style="fill:none;stroke:#ffa401;stroke-linecap:round;stroke-linejoin:round;stroke-width:2px"/></g></svg>