<svg xmlns="http://www.w3.org/2000/svg" viewBox="0 0 64 64"><g id="Safe_Purchase" data-name="Safe Purchase"><path d="M32,62h0A39,39,0,0,0,56,26V12C49,12,32,2,32,2S15,12,8,12V26A39,39,0,0,0,32,62Z" style="fill:none;stroke:#ffa401;stroke-linecap:round;stroke-linejoin:round;stroke-width:2px"/><path d="M32,57.623A34.8975,34.8975,0,0,1,12,26V15.439c6.7119-1.628,15.6772-6.39,20-8.8252,4.3223,2.4355,13.2881,7.1972,20,8.8252V26A34.8975,34.8975,0,0,1,32,57.623Z" style="fill:none;stroke:#ffa401;stroke-linecap:round;stroke-linejoin:round;stroke-width:2px"/><circle cx="32" cy="32" r="12" style="fill:none;stroke:#ffa401;stroke-linecap:round;stroke-linejoin:round;stroke-width:2px"/><path d="M36.75,38.92A3.6368,3.6368,0,0,1,34.25,40c-2.76,0-5-3.59-5-8s2.24-8,5-8a3.6368,3.6368,0,0,1,2.5,1.08" style="fill:none;stroke:#ffa401;stroke-linecap:round;stroke-linejoin:round;stroke-width:2px"/><line x1="26" y1="30" x2="35" y2="30" style="fill:none;stroke:#ffa401;stroke-linecap:round;stroke-linejoin:round;stroke-width:2px"/><line x1="26" y1="34" x2="35" y2="34" style="fill:none;stroke:#ffa401;stroke-linecap:round;stroke-linejoin:round;stroke-width:2px"/></g></svg>