<svg xmlns="http://www.w3.org/2000/svg" viewBox="0 0 64 64"><g id="Satisfied_Guarantee" data-name="Satisfied Guarantee"><path d="M51.98,19.31c-.13-.94-1.1-1.69-1.37-2.59-.26-.91.14-2.07-.25-2.92-.39-.86-1.54-1.31-2.05-2.09-.51-.8-.44-2.03-1.06-2.74s-1.84-.82-2.55-1.43c-.71-.62-1-1.82-1.79-2.33s-1.99-.27-2.85-.67c-.86-.39-1.46-1.46-2.37-1.72-.9-.27-1.99.3-2.93.17C33.84,2.86,32.96,2,32,2s-1.84.86-2.76.99c-.94.13-2.03-.44-2.93-.17-.91.26-1.51,1.33-2.37,1.72-.86.4-2.06.16-2.85.67S20.02,6.92,19.3,7.53c-.71.62-1.93.73-2.55,1.44s-.55,1.94-1.06,2.74c-.51.78-1.66,1.23-2.05,2.09-.39.85.02,2.01-.25,2.92-.27.9-1.24,1.65-1.37,2.59-.14.93.58,1.92.58,2.88,0,.95-.72,1.95-.58,2.87.13.94,1.1,1.7,1.37,2.59.26.91-.14,2.07.25,2.92.39.86,1.54,1.31,2.05,2.1s.44,2.02,1.06,2.73a4.0791,4.0791,0,0,0,1.51.87,3.6035,3.6035,0,0,1,1.04.57c.71.62,1,1.81,1.79,2.33.79.5,1.99.27,2.85.66s1.46,1.46,2.37,1.73c.9.26,1.99-.31,2.93-.17a7.9846,7.9846,0,0,1,1.79.74,2.0068,2.0068,0,0,0,1.94,0,7.9846,7.9846,0,0,1,1.79-.74c.94-.14,2.03.43,2.93.17.91-.27,1.51-1.34,2.37-1.73s2.06-.15,2.85-.66,1.07-1.71,1.79-2.33a3.6035,3.6035,0,0,1,1.04-.57,4.0791,4.0791,0,0,0,1.51-.87c.62-.71.55-1.94,1.06-2.73s1.66-1.24,2.05-2.1c.39-.85-.02-2.01.25-2.92.27-.89,1.24-1.65,1.37-2.59.14-.92-.58-1.92-.58-2.87C51.4,21.23,52.12,20.24,51.98,19.31ZM43.42,32.24a15.1061,15.1061,0,0,1-9.59,5.06,15.2773,15.2773,0,0,1-3.66,0,15.2358,15.2358,0,1,1,13.25-5.06Z" style="fill:none;stroke:#ffa401;stroke-linecap:round;stroke-linejoin:round;stroke-width:2px"/><path d="M47.22,22.19A15.2433,15.2433,0,0,1,33.83,37.3a15.2773,15.2773,0,0,1-3.66,0A15.2249,15.2249,0,1,1,47.22,22.19Z" style="fill:none;stroke:#ffa401;stroke-linecap:round;stroke-linejoin:round;stroke-width:2px"/><polygon points="32 13.104 34.627 18.426 40.5 19.279 36.25 23.422 37.253 29.272 32 26.51 26.747 29.272 27.75 23.422 23.5 19.279 29.373 18.426 32 13.104" style="fill:none;stroke:#ffa401;stroke-linecap:round;stroke-linejoin:round;stroke-width:2px"/><path d="M56.56,55l-8.06.04L44.44,62,32.97,42.13a7.9846,7.9846,0,0,1,1.79-.74c.94-.14,2.03.43,2.93.17.91-.27,1.51-1.34,2.37-1.73s2.06-.15,2.85-.66,1.07-1.71,1.79-2.33a3.6035,3.6035,0,0,1,1.04-.57Z" style="fill:none;stroke:#ffa401;stroke-linecap:round;stroke-linejoin:round;stroke-width:2px"/><path d="M31.03,42.13,19.56,62,15.5,55.04,7.44,55,18.26,36.27a3.6035,3.6035,0,0,1,1.04.57c.71.62,1,1.81,1.79,2.33.79.5,1.99.27,2.85.66s1.46,1.46,2.37,1.73c.9.26,1.99-.31,2.93-.17A7.9846,7.9846,0,0,1,31.03,42.13Z" style="fill:none;stroke:#ffa401;stroke-linecap:round;stroke-linejoin:round;stroke-width:2px"/></g></svg>