<svg xmlns="http://www.w3.org/2000/svg" width="20.283" height="20.283" viewBox="0 0 20.283 20.283"><defs><style>.a{fill:#4bb594;}</style></defs><path class="a" d="M13.691,9.127a1.56,1.56,0,0,0,1.521-1.521,1.521,1.521,0,1,0-3.042,0A1.56,1.56,0,0,0,13.691,9.127Zm-7.1,0A1.56,1.56,0,0,0,8.113,7.606,1.56,1.56,0,0,0,6.592,6.085,1.56,1.56,0,0,0,5.071,7.606,1.56,1.56,0,0,0,6.592,9.127Zm3.55,7.1a6.277,6.277,0,0,0,5.781-4.057H4.361A6.277,6.277,0,0,0,10.142,16.226ZM10.142,0A10.142,10.142,0,1,0,20.283,10.142,10.171,10.171,0,0,0,10.142,0Zm0,18.255a8.113,8.113,0,1,1,8.113-8.113A8.137,8.137,0,0,1,10.142,18.255Z"/></svg>