<?xml version="1.0" encoding="utf-8"?>
<!-- Generator: Adobe Illustrator 22.0.0, SVG Export Plug-In . SVG Version: 6.00 Build 0)  -->
<svg version="1.1" xmlns="http://www.w3.org/2000/svg" xmlns:xlink="http://www.w3.org/1999/xlink" x="0px" y="0px"
	 viewBox="0 0 36.5 33.4" style="enable-background:new 0 0 36.5 33.4;" xml:space="preserve">
<style type="text/css">
	.st0{fill:#16212D;}
	.st1{fill:#232F3E;}
	.st2{fill:#F2F2F2;}
	.st3{fill:#F19833;}
	.st4{fill:#469EBA;}
	.st5{fill:#F3CA66;}
	.st6{fill:#FFFFFF;}
	.st7{fill:#B12D24;}
	.st8{fill:#478B05;}
	.st9{fill:#666666;}
	.st10{fill:#EAEFF4;}
	.st11{fill:none;stroke:#FFFFFF;stroke-width:2;stroke-miterlimit:10;}
	.st12{fill:#999999;}
	.st13{fill:none;stroke:#F3CA66;stroke-width:2;stroke-miterlimit:10;}
	.st14{clip-path:url(#SVGID_2_);fill:#F19833;}
	.st15{clip-path:url(#SVGID_4_);fill:#F19833;}
	.st16{fill:none;}
	.st17{clip-path:url(#SVGID_6_);fill:#F19833;}
	.st18{clip-path:url(#SVGID_8_);fill:#F19833;}
	.st19{clip-path:url(#SVGID_10_);fill:#F19833;}
	.st20{fill:#F2F2F2;stroke:#F2F2F2;stroke-width:2;stroke-miterlimit:10;}
	.st21{fill:#DADCE0;}
	.st22{fill:none;stroke:#469EBA;stroke-miterlimit:10;}
	.st23{clip-path:url(#SVGID_12_);fill:#F19833;}
	.st24{clip-path:url(#SVGID_14_);fill:#F19833;}
	.st25{clip-path:url(#SVGID_16_);fill:#F19833;}
	.st26{clip-path:url(#SVGID_18_);fill:#F19833;}
	.st27{clip-path:url(#SVGID_20_);fill:#F19833;}
	.st28{clip-path:url(#SVGID_22_);fill:#F19833;}
	.st29{clip-path:url(#SVGID_24_);fill:#F19833;}
	.st30{clip-path:url(#SVGID_26_);fill:#F19833;}
	.st31{clip-path:url(#SVGID_28_);fill:#F19833;}
	.st32{clip-path:url(#SVGID_30_);fill:#F19833;}
	.st33{clip-path:url(#SVGID_32_);fill:#F19833;}
	.st34{clip-path:url(#SVGID_34_);fill:#F19833;}
	.st35{clip-path:url(#SVGID_36_);fill:#F19833;}
</style>
<g id="currently">
</g>
<g id="home_page">
	<g>
		<path class="st6" d="M36.3,4.8c-0.2-0.2-0.3-0.3-0.6-0.3H6.8L6.1,0.6C6.1,0.3,5.6,0,5.3,0L0.8,0C0.4,0,0,0.3,0,0.7
			c0,0.5,0.3,0.8,0.8,0.8h4l3.6,18.5c0.5,2.4,2.7,4.3,5.2,4.3H31c0.4,0,0.7-0.3,0.8-0.7c0-0.5-0.3-0.8-0.8-0.8H13.7
			c-1.2,0-2.4-0.6-3-1.7l22.2-3c0.3,0,0.6-0.3,0.6-0.6l3-12.2C36.5,5.3,36.5,5,36.3,4.8L36.3,4.8z M32.1,16.7L9.9,19.6L7.1,5.9h27.5
			L32.1,16.7z M32.1,16.7"/>
		<path class="st6" d="M12.9,25.8c-2.1,0-3.8,1.7-3.8,3.8c0,2.1,1.7,3.8,3.8,3.8c2.1,0,3.8-1.7,3.8-3.8C16.7,27.5,15,25.8,12.9,25.8
			L12.9,25.8z M12.9,31.9c-1.2,0-2.3-1.1-2.3-2.3c0-1.2,1.1-2.3,2.3-2.3c1.2,0,2.3,1.1,2.3,2.3C15.2,30.8,14.1,31.9,12.9,31.9
			L12.9,31.9z M12.9,31.9"/>
		<path class="st6" d="M28.1,25.8c-2.1,0-3.8,1.7-3.8,3.8c0,2.1,1.7,3.8,3.8,3.8c2.1,0,3.8-1.7,3.8-3.8
			C31.9,27.5,30.2,25.8,28.1,25.8L28.1,25.8z M28.1,31.9c-1.2,0-2.3-1.1-2.3-2.3c0-1.2,1.1-2.3,2.3-2.3c1.2,0,2.3,1.1,2.3,2.3
			C30.4,30.8,29.3,31.9,28.1,31.9L28.1,31.9z M28.1,31.9"/>
	</g>
</g>
</svg>
