<svg id="151e74be-42f5-4588-af78-f40dfbcf120f" data-name="Layer 1" xmlns="http://www.w3.org/2000/svg" viewBox="0 0 391 357"><title>layout_2</title><rect x="108.91" y="29.55" width="172.09" height="101.24" style="fill:#f4f2f3"/><rect x="108.91" y="136.33" width="38.68" height="25.11" style="fill:#f4f2f3"/><rect x="153.38" y="136.33" width="38.68" height="25.11" style="fill:#f4f2f3"/><rect x="197.85" y="136.33" width="38.68" height="25.11" style="fill:#f4f2f3"/><rect x="242.32" y="136.33" width="38.68" height="25.11" style="fill:#f4f2f3"/><text transform="translate(133.52 21.49)" style="font-size:10.6085844039917px;fill:#333;font-family:OpenSans-Bold, Open Sans;font-weight:700">Your Awesome Product</text><text transform="translate(145.57 220.13)" style="font-size:13px;font-family:OpenSans-Regular, Open Sans"><tspan style="fill:#727272;text-decoration:line-through">$13.00</tspan><tspan x="40.63" y="0" style="font-family:OpenSans-Bold, Open Sans;font-weight:700"> </tspan><tspan x="44" y="0" style="fill:#333;font-size:16px;font-family:OpenSans-SemiBold, Open Sans;font-weight:700">$9.10</tspan></text><text transform="translate(100.59 181.61)" style="font-size:6.5px;font-family:OpenSans-Light, Open Sans">Lorem Ipsum is simply dummy text of the printing and typesetting<tspan x="14.29" y="10">industry. Lorem Ipsum has been the industry&apos;s standard</tspan></text><rect x="121.6" y="240.5" width="133.4" height="16" rx="1" ry="1" style="fill:none;stroke:#3a3a3a;stroke-miterlimit:10;stroke-width:0.25px"/><text transform="translate(122.8 235.97)" style="font-size:6.5px;fill:#333;font-family:OpenSans-Regular, Open Sans">Size</text><text transform="translate(125.8 250.58)" style="font-size:6px;fill:#9b9b9b;font-family:OpenSans-Regular, Open Sans">Medium</text><polygon points="244.8 247 248.8 247 246.8 250 244.8 247" style="fill:#a5a5a5"/><rect x="121.6" y="279.5" width="133.4" height="16" rx="1" ry="1" style="fill:none;stroke:#3a3a3a;stroke-miterlimit:10;stroke-width:0.25px"/><text transform="translate(122.8 274.97)" style="font-size:6.5px;fill:#333;font-family:OpenSans-Regular, Open Sans">Quantity</text><text transform="translate(127.8 289.58)" style="font-size:6px;fill:#9b9b9b;font-family:OpenSans-Regular, Open Sans">1</text><polygon points="244.8 286 248.8 286 246.8 289 244.8 286" style="fill:#a5a5a5"/><rect x="86" y="306" width="219" height="28" style="fill:#1cbe09"/><rect x="86" y="304" width="219" height="28" style="fill:#6fdc1f"/><text transform="translate(141 319.18)" style="font-size:9.473950386047363px;fill:#fff;font-family:OpenSans-Bold, Open Sans;font-weight:700">Yes, Add This To My Order</text><text transform="translate(157.46 327.03)" style="font-size:5.524779796600342px;fill:#fff;font-family:OpenSans-Regular, Open Sans">We will ship it out in same package.</text><text transform="translate(138.23 344.65)" style="font-size:6px;fill:#565656;font-family:OpenSans-Regular, Open Sans">We will ship it out to you free in same package</text></svg>