<svg id="2c63ab00-e5b9-4a27-adbb-832d07e782e3" data-name="Layer 1" xmlns="http://www.w3.org/2000/svg" viewBox="0 0 391 357"><title>layout_3</title><rect x="20" y="32" width="347" height="12" style="fill:#ededed"/><rect x="20" y="32" width="197" height="12" style="fill:#53b802"/><text transform="translate(143.84 24.92)" style="font-size:8.075440406799316px;fill:#7a7a7a;font-family:OpenSans-SemiBold, Open Sans;font-weight:700">Step 2 of 3: Customize your order</text><rect y="60" width="391" height="39" style="fill:#efefef"/><text transform="translate(17 76.92)" style="font-size:11.3673095703125px;fill:#7a7a7a;font-family:OpenSans-Bold, Open Sans;font-weight:700">Wait<tspan x="26.26" y="0" style="fill:#333"> </tspan><tspan x="29.21" y="0" style="fill:#ea152f">John</tspan><tspan x="54.96" y="0">! Here’s an exclusive offer to complement your order!</tspan></text><text transform="translate(50.86 93.03)" style="font-size:8px;fill:#303749;font-family:OpenSans-Regular, Open Sans">IMPORTANT: PLEASE WATCH THIS BTIEF VIDEO BEFORE CLAIMING THIS OFFER</text><rect x="133.8" y="276.5" width="123.2" height="16" rx="1" ry="1" style="fill:none;stroke:#3a3a3a;stroke-miterlimit:10;stroke-width:0.25px"/><text transform="translate(133.8 271.97)" style="font-size:6.5px;fill:#7a7a7a;font-family:OpenSans-Regular, Open Sans">Quantity</text><text transform="translate(140.8 286.58)" style="font-size:6px;fill:#9b9b9b;font-family:OpenSans-Regular, Open Sans">1</text><polygon points="246.8 283 250.8 283 248.8 286 246.8 283" style="fill:#a5a5a5"/><rect x="199.9" y="299.6" width="175.2" height="22.4" style="fill:#1cbe09"/><rect x="199.9" y="298" width="175.2" height="22.4" style="fill:#6fdc1f"/><text transform="translate(225.9 313.75)" style="font-size:9.600000381469727px;fill:#fff;font-family:OpenSans-SemiBold, Open Sans;font-weight:700">Yes, Add This To My Order</text><rect x="17.9" y="299.6" width="175.2" height="22.4" style="fill:#890e04"/><rect x="17.9" y="298" width="175.2" height="22.4" style="fill:#d52011"/><text transform="translate(37.9 313.75)" style="font-size:9.600000381469727px;fill:#fff;font-family:OpenSans-SemiBold, Open Sans;font-weight:700">No Thanks, I don&apos;t want this</text><text transform="translate(47.23 249.65)" style="font-size:6px;fill:#565656;font-family:OpenSans-Regular, Open Sans">This is your last chance to get 20% off your order. Add this item to your cart and unlock instant savings.</text><text transform="translate(74.23 339.65)" style="font-size:6px;fill:#7a7a7a;font-family:OpenSans-Italic, Open Sans;font-style:italic">Clicking the &quot;Yes, I Want This Button&quot; will automatically add this product to your order for $25.98.</text><text transform="translate(26.67 39)" style="font-size:4px;fill:#fff;font-family:OpenSans-Regular, Open Sans">57% Complete</text><rect x="103.15" y="109.67" width="191" height="114" style="fill:#efefef"/><rect x="176.65" y="153.17" width="40.35" height="25.03" rx="4" ry="4" style="fill:#bcbcbc"/><polygon points="203.76 165.67 193.54 159.76 193.54 171.57 203.76 165.67" style="fill:#e2e2e2"/></svg>