<?xml version="1.0" encoding="utf-8"?>
<!-- Generator: Adobe Illustrator 23.1.0, SVG Export Plug-In . SVG Version: 6.00 Build 0)  -->
<svg version="1.1" id="Layer_1" xmlns="http://www.w3.org/2000/svg" xmlns:xlink="http://www.w3.org/1999/xlink" x="0px" y="0px"
	 viewBox="0 0 1000 294" style="enable-background:new 0 0 1000 294;" xml:space="preserve">
<style type="text/css">
	.st0{fill:#FFC40C;}
	.st1{fill:none;stroke:#FFC40C;stroke-width:5;stroke-miterlimit:10;}
</style>
<polygon class="st0" points="123.16,191.23 73.67,222.31 87.92,165.63 43.08,128.16 101.38,124.21 123.16,69.98 144.94,124.21 
	203.25,128.16 158.4,165.63 172.66,222.31 "/>
<polygon class="st0" points="309.6,191.23 260.1,222.31 274.36,165.63 229.51,128.16 287.82,124.21 309.6,69.98 331.38,124.21 
	389.69,128.16 344.84,165.63 359.1,222.31 "/>
<polygon class="st0" points="496.04,191.23 446.54,222.31 460.8,165.63 415.95,128.16 474.26,124.21 496.04,69.98 517.82,124.21 
	576.12,128.16 531.28,165.63 545.53,222.31 "/>
<polygon class="st0" points="682.48,191.23 632.98,222.31 647.24,165.63 602.39,128.16 660.7,124.21 682.48,69.98 704.25,124.21 
	762.56,128.16 717.71,165.63 731.97,222.31 "/>
<polygon class="st1" points="868.91,191.23 819.42,222.31 833.68,165.63 788.83,128.16 847.14,124.21 868.91,69.98 890.69,124.21 
	949,128.16 904.15,165.63 918.41,222.31 "/>
</svg>
