<?xml version="1.0" encoding="utf-8"?>
<!-- Generator: Adobe Illustrator 22.1.0, SVG Export Plug-In . SVG Version: 6.00 Build 0)  -->
<svg version="1.1" id="Layer_1" xmlns="http://www.w3.org/2000/svg" xmlns:xlink="http://www.w3.org/1999/xlink" x="0px" y="0px"
	 viewBox="0 0 73 64.4" style="enable-background:new 0 0 73 64.4;" xml:space="preserve">
<style type="text/css">
	.st0{fill:#E8ECEF;}
	.st1{fill:#3A3A3A;}
	.st2{fill:#FFFFFF;}
</style>
<circle class="st0" cx="36.5" cy="32.2" r="30.2"/>
<path class="st1" d="M57.7,32.5c0-0.4-0.2-0.9-0.5-1.2l-3.5-3c-0.1-0.1-0.2-0.3-0.2-0.5c0-0.1,0-0.1,0-0.1l1.5-4.4
	c0.1-0.2,0.1-0.3,0.1-0.5c0-0.7-0.5-1.4-1.3-1.5l-4.6-0.9c-0.1,0-0.5-0.3-0.5-0.5l-0.9-4.5c-0.1-0.7-0.8-1.3-1.5-1.3
	c-0.2,0-0.4,0-0.5,0.1l-4.4,1.5c0,0-0.1,0-0.2,0c-0.2,0-0.5-0.1-0.5-0.2l-3-3.5c-0.3-0.3-0.7-0.5-1.2-0.5c-0.4,0-0.9,0.2-1.2,0.5
	l-3.1,3.5c-0.1,0.1-0.3,0.2-0.5,0.2c-0.1,0-0.1,0-0.2,0l-4.4-1.5c-0.2-0.1-0.3-0.1-0.5-0.1c-0.7,0-1.4,0.5-1.5,1.3l-0.9,4.5
	c0,0.1-0.4,0.5-0.5,0.5l-4.6,0.9c-0.7,0.1-1.3,0.8-1.3,1.5c0,0.2,0,0.3,0.1,0.5l1.5,4.4v0.1c0,0.2-0.1,0.5-0.2,0.5l-3.5,3
	c-0.3,0.3-0.5,0.7-0.5,1.2c0,0.4,0.2,0.9,0.5,1.2l3.5,3c0.1,0.1,0.2,0.3,0.2,0.5c0,0.1,0,0.1,0,0.2L18,41.8
	c-0.1,0.2-0.1,0.3-0.1,0.5c0,0.7,0.5,1.4,1.3,1.5l4.6,0.9c0.1,0,0.5,0.3,0.5,0.5l0.9,4.5c0.1,0.7,0.8,1.3,1.5,1.3
	c0.2,0,0.4,0,0.5-0.1l4.4-1.5c0,0,0.1,0,0.2,0c0.2,0,0.5,0.1,0.5,0.2l3.1,3.5c0.3,0.3,0.7,0.5,1.2,0.5l0,0c0.4,0,0.9-0.2,1.2-0.5
	l3.1-3.5c0.1-0.1,0.3-0.2,0.5-0.2c0.1,0,0.1,0,0.1,0l4.4,1.5C46,51,46.2,51,46.4,51c0.7,0,1.4-0.5,1.5-1.2l0.9-4.5
	c0-0.1,0.3-0.5,0.5-0.5l4.6-0.9c0.7-0.1,1.3-0.8,1.3-1.5c0-0.2,0-0.3-0.1-0.5l-1.5-4.4v-0.1c0-0.2,0.1-0.5,0.2-0.5l3.5-3.1l-0.5-0.6
	l0.5,0.6C57.5,33.4,57.7,33,57.7,32.5L57.7,32.5z M30.7,39.4c-0.7,0.2-1.1,0.1-1.6-0.5l-3.6-4.6l0,0l1.5,5.2c0.2,0.5-0.1,1-0.6,1.1
	s-1-0.1-1.1-0.6l-2.4-8c-0.2-0.5,0.1-1,0.7-1.2s0.9-0.1,1.5,0.5l3.6,4.5l0,0l-1.5-5.1c-0.2-0.5,0.1-1,0.6-1.1s1,0.1,1.1,0.6l2.2,7.8
	C31.4,38.8,31.1,39.2,30.7,39.4L30.7,39.4z M37.1,37.4l-3.5,1c-0.6,0.2-1,0-1.2-0.7l-2.2-7.5c-0.2-0.7,0-1,0.7-1.2l3.4-1
	c0.7-0.2,1,0.1,1.1,0.5s0,0.9-0.7,1l-2.6,0.7l0.6,2.2l2.4-0.7c0.7-0.2,1,0.1,1.1,0.5c0.1,0.4,0,0.9-0.7,1L33.2,34l0.7,2.5l2.7-0.8
	c0.7-0.2,1,0.1,1.1,0.5C37.9,36.8,37.7,37.2,37.1,37.4L37.1,37.4z M45.2,35.2c-0.9,0.3-1.1,0.1-1.5-0.7l-2.3-4.8l0,0l0.6,5.6
	c0.1,0.6-0.2,0.8-0.9,1c-0.8,0.2-1.1,0-1.4-0.4l-3.6-7.1c-0.1-0.3-0.2-0.5-0.3-0.7c-0.1-0.4,0.1-0.9,0.7-1c0.5-0.2,0.8,0.1,1,0.5
	l2.9,6.2l0,0L39.6,27c-0.1-0.5,0-0.8,0.6-0.9c0.5-0.2,0.8,0,1,0.5l3.1,6.2l0,0L43.4,26c-0.1-0.6,0.2-0.9,0.7-1
	c0.6-0.2,0.9,0,1.1,0.6c0.1,0.2,0.1,0.4,0.1,0.6l0.8,7.7C46.3,34.8,46.1,35,45.2,35.2L45.2,35.2z M47.1,28.3
	c-0.2-0.4-0.3-0.7-0.3-0.9l-0.6-2c-0.2-0.5,0-1,0.6-1.2s1,0.1,1.1,0.7l0.6,2c0.1,0.2,0.1,0.5,0.2,0.9l0.5,2.8
	c0.1,0.5,0.1,0.7-0.4,0.9c-0.4,0.1-0.6-0.1-0.8-0.5L47.1,28.3L47.1,28.3z M49.6,34c-0.5,0.2-1.1-0.2-1.3-0.7s0.2-1.1,0.7-1.3
	c0.6-0.2,1.1,0.2,1.3,0.7C50.5,33.3,50.2,33.8,49.6,34"/>
<ellipse class="st1" cx="36.4" cy="33.4" rx="15.5" ry="13.9"/>
<g>
	<g>
		<path class="st2" d="M38.7,40.1h-10V38l3.6-3.6c1.1-1.1,1.8-1.8,2.1-2.3c0.3-0.4,0.6-0.8,0.7-1.2c0.1-0.4,0.2-0.7,0.2-1.1
			c0-0.6-0.2-1-0.5-1.3s-0.7-0.4-1.3-0.4s-1.1,0.1-1.6,0.4c-0.5,0.3-1.1,0.6-1.6,1.1l-1.6-1.9c0.7-0.6,1.3-1,1.7-1.3
			c0.5-0.2,1-0.4,1.5-0.6c0.5-0.2,1.2-0.2,1.8-0.2c0.9,0,1.7,0.2,2.4,0.5s1.2,0.8,1.6,1.4c0.4,0.6,0.6,1.3,0.6,2s-0.1,1.3-0.3,1.9
			c-0.2,0.6-0.6,1.2-1.1,1.8s-1.3,1.5-2.6,2.6l-1.8,1.7v0.1h6.2C38.7,37.6,38.7,40.1,38.7,40.1z"/>
		<path class="st2" d="M40.5,38.7c0-0.5,0.1-1,0.4-1.2s0.7-0.4,1.3-0.4c0.5,0,1,0.1,1.3,0.4c0.3,0.3,0.4,0.7,0.4,1.2
			s-0.2,0.9-0.4,1.2c-0.3,0.3-0.7,0.4-1.2,0.4s-1-0.1-1.3-0.4C40.6,39.7,40.5,39.3,40.5,38.7z M43.4,35.4H41l-0.5-9.5h3.4L43.4,35.4
			z"/>
	</g>
</g>
</svg>
