<?xml version="1.0" encoding="utf-8"?>
<!-- Generator: Adobe Illustrator 22.1.0, SVG Export Plug-In . SVG Version: 6.00 Build 0)  -->
<svg version="1.1" id="Layer_1" xmlns="http://www.w3.org/2000/svg" xmlns:xlink="http://www.w3.org/1999/xlink" x="0px" y="0px"
	 viewBox="0 0 96 48" style="enable-background:new 0 0 96 48;" xml:space="preserve">
<style type="text/css">
	.st0{fill:#FFFFFF;}
</style>
<g>
	<path class="st0" d="M9.7,14.5h3.4L6.1,26.6H2.8L1,14.5h3.6l0.6,8.9L9.7,14.5z"/>
	<path class="st0" d="M14.9,14.5h3.2l-2.6,12.1h-3.2L14.9,14.5z M18.4,13h-3.2l0.6-2.9H19L18.4,13z"/>
	<path class="st0" d="M27.1,14.5c0.7,0.3,1.2,0.9,1.5,1.7l0.4-1.7h3.1l-2.4,11.5c-0.3,1.6-0.8,2.7-1.5,3.5c-1.2,1.4-3.1,2-5.6,2
		c-1.5,0-2.7-0.3-3.6-0.9c-0.8-0.6-1.2-1.5-1-2.7h3.4c0,0.4,0.1,0.6,0.3,0.8c0.3,0.3,0.8,0.4,1.6,0.4c1.1,0,2-0.4,2.5-1.1
		c0.4-0.5,0.7-1.3,0.9-2.5l0.2-0.8c-0.4,0.5-0.8,0.9-1.2,1.2c-0.7,0.5-1.6,0.7-2.6,0.7c-1.5,0-2.7-0.5-3.4-1.6
		c-0.7-1.1-0.8-2.6-0.4-4.4c0.4-1.8,1.1-3.3,2.3-4.5s2.5-1.8,4.2-1.8C26.2,14.2,26.7,14.3,27.1,14.5z M27.7,20.5
		c0.2-1.1,0.2-2-0.2-2.6c-0.4-0.6-0.9-0.9-1.7-0.9c-1.1,0-2,0.5-2.6,1.6c-0.3,0.6-0.6,1.2-0.8,2c-0.1,0.7-0.2,1.3,0,1.9
		c0.2,1,0.9,1.5,2,1.5c0.7,0,1.4-0.3,2-0.8C27,22.6,27.4,21.7,27.7,20.5z"/>
	<path class="st0" d="M37.8,27c-2.1,0-3.5-0.6-4.2-1.9c-0.7-1.3-0.9-2.8-0.6-4.6c0.4-1.7,1.2-3.3,2.5-4.5c1.3-1.3,3-1.9,5.1-1.9
		c2.1,0,3.5,0.6,4.2,1.9c0.7,1.3,0.9,2.8,0.6,4.5c-0.4,1.8-1.2,3.3-2.5,4.6C41.6,26.4,39.9,27,37.8,27z M42,20.6
		c0.3-1.2,0.2-2.1-0.1-2.8c-0.4-0.7-1-1-1.9-1c-0.9,0-1.7,0.3-2.3,1c-0.6,0.7-1.1,1.6-1.3,2.8c-0.3,1.2-0.2,2.1,0.1,2.8
		c0.4,0.7,1,1,1.9,1s1.7-0.3,2.3-1C41.3,22.7,41.8,21.8,42,20.6z"/>
	<path class="st0" d="M48.3,22.8c-0.1,0.7,0,1.2,0.2,1.5c0.4,0.6,1.2,1,2.4,1c0.7,0,1.4-0.2,2-0.5c0.6-0.3,1-0.8,1.2-1.5
		c0.1-0.5,0-0.9-0.4-1.2c-0.3-0.2-0.8-0.3-1.6-0.6l-1.5-0.4c-1-0.2-1.6-0.5-2.1-0.8c-0.7-0.5-1-1.3-0.8-2.2c0.2-1.1,0.8-2,1.8-2.7
		c1-0.7,2.1-1,3.5-1c1.8,0,3,0.5,3.5,1.6c0.4,0.7,0.4,1.4,0.3,2.1h-1.9c0.1-0.4,0-0.9-0.2-1.2c-0.3-0.5-1.1-0.8-2.2-0.8
		c-0.8,0-1.3,0.1-1.8,0.4c-0.4,0.3-0.7,0.7-0.8,1.1c-0.1,0.5,0.1,0.9,0.5,1.2c0.3,0.2,0.7,0.3,1.2,0.5l1.2,0.3
		c1.4,0.3,2.2,0.7,2.7,1c0.7,0.5,0.9,1.3,0.6,2.4c-0.2,1.1-0.8,2-1.8,2.7S52,27,50.4,27c-1.8,0-2.9-0.4-3.5-1.2s-0.7-1.8-0.5-3
		L48.3,22.8L48.3,22.8z"/>
	<path class="st0" d="M61.1,10.2h2l-1.3,6.1c0.6-0.6,1.1-1,1.5-1.3c0.7-0.4,1.6-0.6,2.5-0.6c1.7,0,2.8,0.6,3.1,1.8
		c0.2,0.7,0.2,1.6-0.1,2.7l-1.6,7.6h-2l1.6-7.5c0.2-0.9,0.2-1.5,0.1-1.9c-0.2-0.6-0.8-1-1.8-1c-0.8,0-1.6,0.3-2.4,0.8
		s-1.4,1.6-1.7,3.2l-1.3,6.3h-2L61.1,10.2z"/>
	<path class="st0" d="M81.8,20.4c-0.4,1.9-1.2,3.5-2.4,4.7c-1.2,1.2-2.8,1.9-4.7,1.9c-1.6,0-2.8-0.6-3.5-1.7
		c-0.7-1.1-0.9-2.6-0.5-4.5c0.4-2,1.3-3.6,2.5-4.8c1.3-1.2,2.8-1.8,4.5-1.8c1.5,0,2.7,0.5,3.6,1.5C82,16.9,82.3,18.4,81.8,20.4z
		 M79.7,20.4c0.2-1.1,0.2-2,0-2.7c-0.3-1.1-1.2-1.6-2.6-1.6c-1.2,0-2.2,0.5-3,1.4c-0.7,0.9-1.3,2-1.5,3.4c-0.3,1.3-0.2,2.3,0.2,3.2
		c0.4,0.8,1.2,1.3,2.4,1.3c1.3,0,2.3-0.5,3.1-1.5C79,22.8,79.5,21.7,79.7,20.4z"/>
	<path class="st0" d="M85.3,14.8h1.9l-0.3,1.6c0.5-0.5,1-1,1.6-1.2c0.8-0.4,1.6-0.7,2.5-0.7c1.3,0,2.4,0.5,3.1,1.5
		c0.7,1,0.9,2.5,0.5,4.4c-0.5,2.6-1.6,4.4-3.2,5.5c-1,0.7-2.1,1-3.2,1c-0.9,0-1.6-0.2-2.1-0.6c-0.3-0.2-0.6-0.6-0.9-1.1l-1.3,6.1h-2
		L85.3,14.8z M92.4,20.6c0.2-0.9,0.2-1.8,0.1-2.4c-0.2-1.3-1-2-2.4-2c-1.4,0-2.5,0.7-3.3,2.1c-0.4,0.7-0.8,1.7-1,2.8
		c-0.2,0.9-0.2,1.7-0.1,2.3c0.3,1.2,1.1,1.8,2.4,1.8c0.9,0,1.8-0.4,2.6-1.2C91.5,23.3,92.1,22.1,92.4,20.6z"/>
</g>
<g>
	<g>
		<path class="st0" d="M1,36c7.2-0.3,14.5-0.4,21.7-0.5l5.4-0.1l5.4,0c3.6,0,7.2,0,10.9-0.1c3.6,0,7.2,0,10.9,0
			c3.6,0,7.2,0,10.9,0.1c7.2,0.1,14.5,0.2,21.7,0.4v0.4c-7.2,0.2-14.5,0.3-21.7,0.4c-3.6,0-7.2,0.1-10.9,0.1c-3.6,0-7.2,0-10.9,0
			c-3.6,0-7.2,0-10.9-0.1l-5.4,0l-5.4-0.1C15.5,36.4,8.3,36.3,1,36z"/>
		<g>
			<path class="st0" d="M86.3,36l-1.8-3l0.1-0.1l5,2c1.7,0.4,3.5,0.8,5.2,1.1c-1.7,0.4-3.5,0.8-5.2,1.1l-5,2l-0.1-0.1L86.3,36z"/>
		</g>
	</g>
</g>
</svg>
