<?xml version="1.0" encoding="utf-8"?>
<!-- Generator: Adobe Illustrator 22.1.0, SVG Export Plug-In . SVG Version: 6.00 Build 0)  -->
<svg version="1.1" id="Layer_1" xmlns="http://www.w3.org/2000/svg" xmlns:xlink="http://www.w3.org/1999/xlink" x="0px" y="0px"
	 viewBox="0 0 486 162.2" style="enable-background:new 0 0 486 162.2;" xml:space="preserve">
<style type="text/css">
	.st0{fill:#231F20;}
</style>
<g id="Layer_2_1_">
</g>
<g id="Layer_1_1_">
	<g>
		<path class="st0" d="M51.8,32.9h16.9L34.2,93H17.6L8.8,32.9h17.7l3.1,44.4L51.8,32.9z"/>
		<path class="st0" d="M77.8,32.9h16L81,93H65L77.8,32.9z M95.3,25.7h-16l3.1-14.5h16L95.3,25.7z"/>
		<path class="st0" d="M138.8,32.8c3.5,1.6,6,4.5,7.5,8.7l1.8-8.7h15.3l-12.1,57.1c-1.6,7.8-4.2,13.6-7.6,17.6
			c-5.9,6.8-15.3,10.2-28,10.2c-7.7,0-13.6-1.5-17.9-4.5c-4.2-3-6-7.5-5.2-13.5h17.1c0.1,1.8,0.5,3.2,1.3,4c1.4,1.4,4.1,2.2,8.1,2.2
			c5.7,0,9.9-1.9,12.6-5.7c1.8-2.4,3.3-6.5,4.5-12.3L137,84c-2.1,2.6-4.1,4.5-6.1,5.8c-3.6,2.4-8,3.6-13,3.6
			c-7.7,0-13.3-2.7-16.8-8.1s-4.2-12.8-2.2-22.1c1.9-8.9,5.7-16.5,11.5-22.6s12.7-9.1,20.9-9.1C134.2,31.4,136.8,31.9,138.8,32.8z
			 M141.6,62.7c1.2-5.7,0.9-10-0.8-13c-1.8-3-4.7-4.5-8.7-4.5c-5.5,0-9.9,2.6-13.1,7.8c-1.7,2.8-3,6.2-3.9,10.2
			c-0.7,3.5-0.8,6.6-0.2,9.3c1,5.1,4.3,7.6,9.8,7.6c3.7,0,7.1-1.4,10.2-4.2C138.1,73.2,140.3,68.7,141.6,62.7z"/>
		<path class="st0" d="M191.8,95.1c-10.3,0-17.4-3.1-21.1-9.4c-3.7-6.3-4.7-13.8-2.8-22.7c1.8-8.7,6-16.2,12.4-22.6
			s14.8-9.6,25.2-9.6c10.3,0,17.4,3.2,21.1,9.6c3.7,6.4,4.7,13.9,2.8,22.6c-1.9,8.8-6,16.4-12.4,22.7S202.2,95.1,191.8,95.1z
			 M212.9,63.1c1.3-6,1-10.7-0.7-13.9c-1.8-3.3-5-4.9-9.6-4.9s-8.5,1.6-11.6,4.9c-3.2,3.3-5.4,7.9-6.7,13.9s-1,10.7,0.7,14
			c1.8,3.3,5,4.9,9.6,4.9s8.5-1.6,11.6-4.9C209.4,73.7,211.6,69.1,212.9,63.1z"/>
		<path class="st0" d="M244.1,74.5c-0.4,3.3-0.1,5.9,0.9,7.6c1.8,3.2,5.8,4.8,12,4.8c3.7,0,7.1-0.8,10.2-2.4s5.1-4.1,5.8-7.4
			c0.6-2.5-0.2-4.5-2.2-5.8c-1.3-0.8-3.9-1.7-7.9-2.8l-7.5-2c-4.8-1.2-8.2-2.6-10.3-4.2c-3.7-2.7-5.1-6.4-4-11.2
			c1.2-5.6,4.1-10.1,8.9-13.6c4.8-3.5,10.6-5.2,17.4-5.2c8.9,0,14.8,2.6,17.6,7.8c1.8,3.3,2.2,6.9,1.3,10.7H277
			c0.3-2.2-0.1-4.3-1.1-6.1c-1.7-2.6-5.4-3.9-11-3.9c-3.8,0-6.7,0.7-9,2.2c-2.2,1.4-3.6,3.3-4.1,5.7c-0.6,2.6,0.3,4.6,2.5,6.2
			c1.3,0.9,3.3,1.7,6,2.4l6.2,1.6c6.8,1.7,11.2,3.4,13.3,5c3.3,2.5,4.4,6.5,3.2,12c-1.1,5.3-4.1,9.8-8.9,13.6
			c-4.8,3.8-11.3,5.7-19.5,5.7c-8.8,0-14.6-2-17.4-6c-2.8-4-3.7-8.9-2.7-14.8h9.6V74.5z"/>
		<path class="st0" d="M308.1,11.7h9.9L311.5,42c3-3,5.6-5.1,7.7-6.3c3.6-2.1,7.9-3.1,12.6-3.1c8.6,0,13.7,3,15.5,9
			c1,3.3,0.8,7.8-0.4,13.6L339,93h-10.2l7.9-37.3c0.9-4.3,1-7.5,0.4-9.6c-1.1-3.2-4.2-4.9-9.2-4.9c-4.1,0-8.2,1.4-12.1,4.2
			s-6.8,8.2-8.4,16.1L300.7,93h-9.9L308.1,11.7z"/>
		<path class="st0" d="M411.3,62.2c-2,9.5-6,17.4-12,23.6s-13.8,9.3-23.6,9.3c-8.1,0-14-2.8-17.6-8.3s-4.4-12.9-2.5-22.2
			c2.1-9.9,6.3-17.8,12.6-23.7s13.7-8.8,22.2-8.8c7.6,0,13.5,2.5,17.7,7.6C412.3,44.9,413.4,52.4,411.3,62.2z M400.8,62.5
			C402,57,402,52.5,401,49c-1.7-5.4-5.9-8.2-12.8-8.2c-6.1,0-11,2.3-14.7,7s-6.3,10.2-7.7,16.8c-1.3,6.3-1.1,11.5,0.8,15.7
			s5.8,6.3,11.8,6.3c6.6,0,11.6-2.5,15.2-7.5C397.1,74.2,399.5,68.6,400.8,62.5z"/>
		<path class="st0" d="M428.3,34.2h9.7l-1.7,7.8c2.5-2.7,5.2-4.8,7.8-6.2c3.8-2.2,8-3.3,12.5-3.3c6.7,0,11.8,2.6,15.4,7.7
			s4.3,12.5,2.3,22c-2.7,12.9-8,22.1-16,27.6c-5,3.5-10.3,5.2-16,5.2c-4.5,0-8-1-10.6-2.9c-1.5-1.1-3.1-3-4.7-5.7l-6.4,30.2h-9.9
			L428.3,34.2z M464,63.1c1-4.7,1.2-8.8,0.5-12.1c-1.2-6.5-5.2-9.8-12-9.8c-6.9,0-12.3,3.4-16.3,10.3c-2.1,3.7-3.8,8.4-5,14
			c-1,4.6-1.1,8.4-0.4,11.6c1.3,6.1,5.3,9.2,12.1,9.2c4.6,0,8.9-1.9,12.8-5.8C459.6,76.6,462.4,70.8,464,63.1z"/>
	</g>
	<g>
		<g>
			<path class="st0" d="M8.8,140c36-1.3,72.1-2.1,108.1-2.6l27-0.4l27-0.2c18-0.2,36-0.2,54.1-0.3c18-0.1,36,0,54.1,0.1
				c18,0,36,0.2,54.1,0.4c36,0.4,72.1,0.9,108.1,1.9v2.2c-36,1-72.1,1.5-108.1,1.9c-18,0.1-36,0.4-54.1,0.4c-18,0-36,0.1-54.1,0.1
				c-18-0.1-36-0.1-54.1-0.3l-27-0.2l-27-0.4C80.9,142.1,44.8,141.4,8.8,140z"/>
			<g>
				<path class="st0" d="M433.7,140l-9.2-15.1l0.5-0.3l24.7,9.8c8.6,1.9,17.2,3.8,25.8,5.7c-8.6,1.9-17.2,3.8-25.8,5.7l-24.7,9.8
					l-0.5-0.3L433.7,140z"/>
			</g>
		</g>
	</g>
</g>
</svg>
