<svg xmlns="http://www.w3.org/2000/svg" width="28" height="21" viewBox="0 0 28 21"><defs><style>.a{fill:#fff;}</style></defs><path class="a" d="M25.375,59.882H2.625A2.628,2.628,0,0,0,0,62.507v15.75a2.628,2.628,0,0,0,2.625,2.625h22.75A2.628,2.628,0,0,0,28,78.257V62.507A2.628,2.628,0,0,0,25.375,59.882Zm0,1.75a.87.87,0,0,1,.335.068L14,71.849,2.29,61.7a.871.871,0,0,1,.335-.068Zm0,17.5H2.625a.876.876,0,0,1-.875-.875V63.549l11.677,10.12a.876.876,0,0,0,1.147,0L26.25,63.549V78.257A.876.876,0,0,1,25.375,79.132Z" transform="translate(0 -59.882)"/></svg>