<svg xmlns="http://www.w3.org/2000/svg" width="13.787" height="25.5" viewBox="0 0 13.787 25.5"><defs><style>.a{fill:#fff;}</style></defs><g transform="translate(-22.077)"><path class="a" d="M35.344.005,32.038,0c-3.715,0-6.116,2.463-6.116,6.276V9.169H22.6a.52.52,0,0,0-.52.52v4.192a.52.52,0,0,0,.52.52h3.325V24.98a.52.52,0,0,0,.52.52H30.78a.52.52,0,0,0,.52-.52V14.4h3.887a.52.52,0,0,0,.52-.52l0-4.192a.52.52,0,0,0-.52-.52H31.3V6.716c0-1.179.281-1.777,1.817-1.777h2.228a.52.52,0,0,0,.52-.52V.525A.52.52,0,0,0,35.344.005Z"/></g></svg>