<?xml version="1.0" encoding="utf-8"?>
<!-- Generator: Adobe Illustrator 21.0.2, SVG Export Plug-In . SVG Version: 6.00 Build 0)  -->
<svg version="1.1" id="Layer_1" xmlns="http://www.w3.org/2000/svg" xmlns:xlink="http://www.w3.org/1999/xlink" x="0px" y="0px"
	 viewBox="0 0 89 89" style="enable-background:new 0 0 89 89;" xml:space="preserve">
<style type="text/css">
	.st0{fill:#F4F4F4;}
	.st1{fill:none;stroke:#002447;stroke-width:2.5;stroke-linecap:round;stroke-linejoin:round;}
	.st2{fill:#2CA58D;}
	.st3{fill:none;stroke:#FFFFFF;}
</style>
<g transform="translate(-789 -737)">
	<circle class="st0" cx="833.5" cy="781.5" r="44.5"/>
	<g transform="translate(511.607 329.396)">
		<path class="st1" d="M331.8,452.8c0,0,7.3,2.7,8.4,3.7c2.4,2.3,3.1,8,3.1,11.2c0.1,2,0.6,3.9,1.3,5.7"/>
		<path class="st1" d="M336.7,460.3c-1.7-1.9-3.2-1.8-4.4-3c-2.4-2.3-2.2-2.2-4.4-4.3c-1.3-1.3-2.2-2-3.5-1.1
			c-1.1,0.7-1,1.7-0.4,2.9c0.7,1.5,4.3,6.2,5,7.3c0.2,0.2,0.3,0.5,0.3,0.8c0.1,1.5,0.5,5.9,6.5,7.6"/>
		<path class="st1" d="M330,472c1.1,0.5,1.8,1.5,2.2,2.6"/>
		<path class="st1" d="M328.2,460.8v8.6h-21.1V434h21.1v19.2"/>
		<path class="st1" d="M312.5,469.4c0-2.9-2.4-5.3-5.3-5.3"/>
		<path class="st1" d="M307.1,439.3c2.9,0,5.3-2.4,5.3-5.3l0,0"/>
		<path class="st1" d="M328.2,464.1c-2.9,0-5.3,2.4-5.3,5.3"/>
		<path class="st1" d="M322.9,434c0,2.9,2.4,5.3,5.3,5.3"/>
		<path class="st1" d="M320.9,458c-0.6,0.3-1.4,0.5-2.1,0.5c-3.1,0-5.5-2.9-5.5-6.4s2.5-6.4,5.5-6.4c0.7,0,1.4,0.2,2.1,0.5"/>
		<line class="st1" x1="320" y1="450.6" x2="312.1" y2="450.6"/>
		<line class="st1" x1="320" y1="453.6" x2="312.1" y2="453.6"/>
	</g>
	<g transform="translate(-6083 -5)">
		<circle class="st2" cx="6884.5" cy="818.5" r="12.5"/>
		<path class="st3" d="M6879.5,819.6l3.3,3.3l7.5-7.5"/>
	</g>
</g>
</svg>
