<?xml version="1.0" encoding="utf-8"?>
<!-- Generator: Adobe Illustrator 21.0.2, SVG Export Plug-In . SVG Version: 6.00 Build 0)  -->
<svg version="1.1" id="Layer_1" xmlns="http://www.w3.org/2000/svg" xmlns:xlink="http://www.w3.org/1999/xlink" x="0px" y="0px"
	 viewBox="0 0 89 89" style="enable-background:new 0 0 89 89;" xml:space="preserve">
<style type="text/css">
	.st0{fill:#F4F4F4;}
	.st1{fill:#002447;stroke:#002447;stroke-width:0.7;}
	.st2{fill:#2CA58D;}
	.st3{fill:none;stroke:#FFFFFF;}
</style>
<g transform="translate(-1189 -737)">
	<circle class="st0" cx="1233.5" cy="781.5" r="44.5"/>
	<g transform="translate(1005.176 625.257)">
		<g transform="translate(209.808 138.139)">
			<path class="st1" d="M19.3,40.6L19,40.5C7.6,36.2,0,25.3,0,13.1c0-1.4,0.1-2.8,0.3-4.2l0.1-0.9l0.9,0c6.5-0.3,12.6-2.9,17.3-7.3
				L19.3,0l0.7,0.7c4.7,4.4,10.8,7,17.3,7.3l0.9,0l0.1,0.9c0.2,1.4,0.3,2.8,0.3,4.2c0,6-1.9,11.9-5.3,16.8
				c-3.4,4.8-8.1,8.5-13.6,10.5L19.3,40.6z M2.3,10.1c-0.1,1-0.2,2-0.2,3.1c0,5.6,1.7,11,4.9,15.6c3.1,4.3,7.3,7.7,12.3,9.6
				c10.4-4,17.2-14,17.2-25.2c0-1-0.1-2-0.2-3.1c-6.3-0.5-12.3-3-17-7.2C14.6,7.1,8.6,9.6,2.3,10.1z"/>
		</g>
		<g transform="translate(220.964 150.346)">
			<g transform="translate(11.125 15.072)">
				<circle class="st1" cx="1.5" cy="1.5" r="1.5"/>
			</g>
			<g transform="translate(2.527 15.072)">
				<circle class="st1" cx="1.5" cy="1.5" r="1.5"/>
			</g>
			<path class="st1" d="M0,3.1l1.1,6.6c0.1,0.5,0.5,0.8,1,0.8h11.2L13.1,12H2.7c-0.6,0-1,0.5-1,1c0,0.6,0.5,1,1,1h11.2
				c0.5,0,0.9-0.4,1-0.8l2-11.2h1.4c0.6,0,1-0.5,1-1c0-0.6-0.5-1-1-1h-2.2c-0.5,0-0.9,0.4-1,0.8l-0.2,1.1H1c-0.6,0-1,0.5-1,1
				C0,3,0,3.1,0,3.1L0,3.1z M2.2,4h12.3l-0.8,4.5H3L2.2,4z"/>
		</g>
	</g>
	<g transform="translate(-5683 -5)">
		<circle class="st2" cx="6884.5" cy="818.5" r="12.5"/>
		<path class="st3" d="M6879.5,819.6l3.3,3.3l7.5-7.5"/>
	</g>
</g>
</svg>
