<?xml version="1.0" encoding="utf-8"?>
<!-- Generator: Adobe Illustrator 21.0.2, SVG Export Plug-In . SVG Version: 6.00 Build 0)  -->
<svg version="1.1" id="Layer_1" xmlns="http://www.w3.org/2000/svg" xmlns:xlink="http://www.w3.org/1999/xlink" x="0px" y="0px"
	 viewBox="0 0 89 89" style="enable-background:new 0 0 89 89;" xml:space="preserve">
<style type="text/css">
	.st0{fill:#F4F4F4;}
	.st1{fill:#002447;}
	.st2{fill:#2CA58D;}
	.st3{fill:none;stroke:#FFFFFF;}
</style>
<g transform="translate(-401 -737)">
	<circle class="st0" cx="445.5" cy="781.5" r="44.5"/>
	<g transform="translate(423.719 689.103)">
		<g transform="translate(27.832 98.036)">
			<path class="st1" d="M5.6,0C2.5,0,0,2.5,0,5.6s2.5,5.6,5.6,5.6c3.1,0,5.6-2.5,5.6-5.6c0,0,0,0,0,0C11.1,2.5,8.7,0,5.6,0z
				 M5.6,8.4C4,8.4,2.8,7.1,2.8,5.6S4,2.8,5.6,2.8c1.5,0,2.8,1.2,2.8,2.8l0,0C8.4,7.1,7.1,8.4,5.6,8.4L5.6,8.4z"/>
		</g>
		<g transform="translate(8.782 98.036)">
			<path class="st1" d="M5.6,0C2.5,0,0,2.5,0,5.6c0,3.1,2.5,5.6,5.6,5.6s5.6-2.5,5.6-5.6l0,0C11.1,2.5,8.7,0,5.6,0z M5.6,8.4
				C4,8.4,2.8,7.1,2.8,5.6C2.8,4,4,2.8,5.6,2.8c1.5,0,2.8,1.2,2.8,2.8l0,0C8.4,7.1,7.1,8.4,5.6,8.4L5.6,8.4z"/>
		</g>
		<g transform="translate(28.576 81.309)">
			<path class="st1" d="M8.6,0.8C8.3,0.3,7.9,0,7.3,0H0v2.8h6.5l3.8,7.6l2.5-1.3L8.6,0.8z"/>
		</g>
		<g transform="translate(18.679 102.264)">
			<rect x="0" y="0" class="st1" width="10.5" height="2.8"/>
		</g>
		<g transform="translate(3.95 102.264)">
			<path class="st1" d="M6.2,0H1.4C0.6,0,0,0.6,0,1.4c0,0.8,0.6,1.4,1.4,1.4c0,0,0,0,0,0h4.8c0.8,0,1.4-0.6,1.4-1.4
				C7.6,0.6,7,0,6.2,0C6.2,0,6.2,0,6.2,0z"/>
		</g>
		<g transform="translate(3.95 78.521)">
			<path class="st1" d="M40,15.2l-2.7-3.5c-0.3-0.3-0.7-0.5-1.1-0.5H26V1.4C26,0.6,25.4,0,24.6,0H1.4C0.6,0,0,0.6,0,1.4
				c0,0.8,0.6,1.4,1.4,1.4h21.8v9.8c0,0.8,0.6,1.4,1.4,1.4h10.8l2,2.6v7.2h-3.9c-0.8,0-1.4,0.6-1.4,1.4c0,0.8,0.6,1.4,1.4,1.4h5.3
				c0.8,0,1.4-0.6,1.4-1.4c0,0,0,0,0,0v-9.1C40.3,15.8,40.2,15.5,40,15.2z"/>
		</g>
		<g transform="translate(2.277 95.202)">
			<path class="st1" d="M7.8,0H1.4C0.6,0,0,0.6,0,1.4c0,0.8,0.6,1.4,1.4,1.4h6.4c0.8,0,1.4-0.6,1.4-1.4C9.2,0.6,8.6,0,7.8,0z"/>
		</g>
		<g transform="translate(0 89.719)">
			<path class="st1" d="M13.3,0H1.4C0.6,0,0,0.6,0,1.4c0,0.8,0.6,1.4,1.4,1.4h11.9c0.8,0,1.4-0.6,1.4-1.4C14.7,0.6,14.1,0,13.3,0z"
				/>
		</g>
		<g transform="translate(2.277 84.236)">
			<path class="st1" d="M13.3,0H1.4C0.6,0,0,0.6,0,1.4s0.6,1.4,1.4,1.4c0,0,0,0,0,0h11.9c0.8,0,1.4-0.6,1.4-1.4S14.1,0,13.3,0
				C13.3,0,13.3,0,13.3,0z"/>
		</g>
	</g>
	<g transform="translate(-6471 -5)">
		<circle class="st2" cx="6884.5" cy="818.5" r="12.5"/>
		<path class="st3" d="M6879.5,819.6l3.3,3.3l7.5-7.5"/>
	</g>
</g>
</svg>
