<svg xmlns="http://www.w3.org/2000/svg" xmlns:xlink="http://www.w3.org/1999/xlink" width="27.909" height="16.28" viewBox="0 0 27.909 16.28"><defs><style>.a{fill:none;}.b{clip-path:url(#a);}.c{fill:#fff;}.d{fill:#1e2788;}.e{fill:#cb0028;}.f{fill:#3a7aa1;}.g{fill:#4c73d5;}.h{fill:#fbfc2b;}.i{fill:#c2a21f;}.j{fill:#613f21;}.k{fill:#160080;}.l{fill:#d30028;}.m{fill:#ba0019;}.n{fill:#82373b;}.o{fill:#83353b;}.p{fill:#e8d629;}.q{fill:#624e0f;}.r{fill:#f4c627;}.s{fill:#f4c427;}</style><clipPath id="a"><rect class="a" width="27.909" height="16.28"/></clipPath></defs><g transform="translate(-6.848 -1.55)"><g transform="translate(6.848 1.55)"><g class="b"><rect class="c" width="27.909" height="5.38" transform="translate(0 5.473)"/><rect class="d" width="27.909" height="5.427" transform="translate(0 10.854)"/><rect class="e" width="27.909" height="5.473"/><g class="b"><path class="c" d="M7.795,4.656a11.862,11.862,0,0,1,3.176-.467,9.561,9.561,0,0,1,3.269.467l.747-1.588-.56-1.027L13.4,2.508l-.654-.841-.934.56-.841-.654-.841.654-.841-.56-.747.841L7.515,2.041l-.56,1.027Z" transform="translate(2.975 0.686)"/><g transform="translate(9.929 2.26)"><path class="e" d="M14.24,4.656h0a12.561,12.561,0,0,0-3.269-.467,11.862,11.862,0,0,0-3.176.467L6.954,3.068l.56-1.027,1.027.467L9.2,1.667l.934.56.841-.654.841.654.934-.56.654.747,1.027-.374.654,1.027L14.24,4.656ZM7.515,2.134l-.56.934.841,1.588A11.918,11.918,0,0,1,10.97,4.1a9.621,9.621,0,0,1,3.269.56l.747-1.588-.56-1.027L13.4,2.508l-.654-.747-.934.56-.841-.747-.841.654L9.2,1.761l-.654.747L7.515,2.134Z" transform="translate(-6.954 -1.574)"/></g><path class="f" d="M7.019,3.636l.374-1.681L8.42,1.581l.56.841L8.14,4.009,7.019,3.636Z" transform="translate(8.981 1.333)"/><g transform="translate(16 2.914)"><path class="g" d="M8.14,4.009h0L7.019,3.636l.374-1.681L8.42,1.581l.56.841L8.14,4.009Zm.28-2.429-1.027.374L7.019,3.636l1.121.374L8.98,2.422l-.56-.841Z" transform="translate(-7.019 -1.581)"/></g><path class="f" d="M7.175,3.911,6.988,2.23l.841-.654.841.654L8.576,3.911Z" transform="translate(6.116 0.871)"/><g transform="translate(13.105 2.447)"><path class="g" d="M8.576,3.911h-1.4L6.988,2.23l.841-.654.841.56L8.576,3.911ZM7.829,1.576l-.841.654.187,1.681a3.078,3.078,0,0,1,1.308,0l.187-1.775-.841-.56Z" transform="translate(-6.988 -1.576)"/></g><path class="f" d="M7.7,4.009,6.955,2.422l.467-.841,1.121.467.374,1.588L7.7,4.009Z" transform="translate(3.067 1.333)"/><g transform="translate(10.022 2.914)"><path class="g" d="M7.7,4.009,6.955,2.422l.467-.841,1.121.374.374,1.681L7.7,4.009Zm-.28-2.429-.467.841L7.7,4.009l1.214-.374L8.543,2.048,7.422,1.581Z" transform="translate(-6.955 -1.581)"/></g><path class="c" d="M6.962,2,7.5,1.958l.364-.364L7.6,2.136,6.962,2Z" transform="translate(3.714 2.516)"/><g transform="translate(10.583 4.156)"><path class="c" d="M7.419,2.183l-.458-.224h.271L7.6,1.912l.364-.318h0L7.6,1.912l-.542.047.635.131.271-.411-.177.411-.364.093Z" transform="translate(-6.961 -1.594)"/></g><path class="h" d="M7.091,1.77v.093L7,1.9v.14H7v.047h.093v.093l.084.047h.28V2.134h.093V2.087h0V1.994h.084V1.947H7.549V1.863L7.456,1.77h0V1.583h0V1.63H7.362v.047h0V1.63l-.093-.047V1.63l-.093.047h0L7.091,1.63h0v.14Z" transform="translate(7.05 1.518)"/><g transform="translate(14.039 3.101)"><path class="i" d="M7.278,2.237H7.185l-.093-.093h0V2.05L7,2.143V1.957H7V1.863h.093V1.77h0V1.676h.093l.093-.093.093.093h.093V1.583h.093v.093H7.465V1.77h0l.093.093h.093v.093l-.093.093h0v.093H7.465v.093Zm0,0h.187V2.143h.093V2.05h0V1.957h0V1.863H7.465V1.77h0V1.676H7.278V1.77H7.185V1.676H7.091V1.77h0v.093H7v.093H7V2.05h.093v.093h.093v.093Z" transform="translate(-6.998 -1.583)"/></g><g transform="translate(14.599 3.568)"><path class="a" d="M7,1.588Z" transform="translate(-7.004 -1.588)"/></g><g transform="translate(14.599 3.475)"><path class="a" d="M7,1.587Z" transform="translate(-7.004 -1.587)"/></g><path class="i" d="M7,1.762h.093v.093h0v.093h.084v.093h.093L7.362,2h0v.047h.093V2l-.093-.047L7.456,1.9v.047h0v-.14l.093-.047h0V1.678l-.093-.093h0v.093h0v.177H7.362v.093H7.269V1.9h0V1.856H7.176V1.762H7.091V1.678h.084V1.585H7.091v.131L7,1.762Z" transform="translate(7.05 1.703)"/><g transform="translate(14.039 3.288)"><path class="i" d="M7.185,2.052h0V1.959H7.091V1.772H7V1.678h.093V1.585h.093v.093H7.091L7,1.772h.093v.187h0l.093-.093v.187Zm.187,0V1.959h0v.093l-.093-.093h.093v.093h0V1.959H7.278V1.865H7.185V1.772H7.091V1.678h.093v.093h0v.093h.093v.093h.093V1.865h.093V1.772h0V1.585h0l.093.093h.093v.093H7.465v.093h0v.093H7.372l.093.093Zm.093-.28v.093h0l-.093.093.093-.093V1.772Zm0-.187h0v.187h0l.093-.093H7.465V1.585Z" transform="translate(-6.998 -1.585)"/></g><path class="j" d="M7,1.681V1.634H7V1.587h.093v.047H7l.093.047H7Z" transform="translate(7.318 1.925)"/><g transform="translate(14.319 3.512)"><path class="i" d="M7,1.728V1.634H7l.093-.047v.047H7l.093.047H7v.047Z" transform="translate(-7.001 -1.587)"/></g><path class="i" d="M7.28,1.632V1.67l-.093.047h0V1.67H7.093v.047h0L7,1.67V1.632h.093V1.585h0v.047Z" transform="translate(7.225 1.749)"/><g transform="translate(14.225 3.288)"><path class="i" d="M7.093,1.772h0L7,1.678h.093l.093-.093h0l-.093.093H7.28l-.093.093h0l-.093-.093h0v.093Zm0-.093H7l.093.093V1.678Z" transform="translate(-7 -1.585)"/></g><path class="j" d="M7.093,1.586Z" transform="translate(7.225 1.832)"/><path class="j" d="M7,1.586H7v.037H7V1.586Z" transform="translate(7.41 1.795)"/><g transform="translate(14.225 3.288)"><path class="i" d="M7,1.632V1.585h.093L7,1.632Z" transform="translate(-7 -1.585)"/></g><path class="i" d="M7.083,1.63H7V1.583H7l.084.047Z" transform="translate(7.142 1.564)"/><g transform="translate(14.141 3.148)"><path class="i" d="M7.083,1.677H7V1.583l.084.047v.047Z" transform="translate(-6.999 -1.583)"/></g><path class="i" d="M7.1,1.676V1.583h0V1.63H7Z" transform="translate(7.41 1.518)"/><g transform="translate(14.412 3.101)"><path class="a" d="M7.1,1.676V1.583h0V1.63H7Z" transform="translate(-7.002 -1.583)"/></g><path class="i" d="M7.094,1.584h0Z" transform="translate(7.318 1.61)"/><g transform="translate(14.225 3.194)"><path class="i" d="M7,1.631V1.584h.187L7,1.631Z" transform="translate(-7 -1.584)"/></g><path class="i" d="M7.094,1.584h0Z" transform="translate(7.318 1.564)"/><g transform="translate(14.319 3.148)"><path class="a" d="M7.094,1.584h0Z" transform="translate(-7.001 -1.584)"/></g><path class="i" d="M7,1.584Z" transform="translate(7.318 1.564)"/><g transform="translate(14.319 3.148)"><path class="a" d="M7,1.584Z" transform="translate(-7.001 -1.584)"/></g><path class="i" d="M7,1.727l.093-.093L7,1.587v.14Z" transform="translate(7.05 1.878)"/><g transform="translate(14.048 3.465)"><path class="a" d="M7,1.727l.093-.093L7,1.587v.14Z" transform="translate(-6.998 -1.587)"/></g><path class="i" d="M7,1.635v0Z" transform="translate(7.142 1.971)"/><g transform="translate(14.048 3.559)"><path class="i" d="M7.091,1.681,7,1.635l.093-.047v.047h0v.047Z" transform="translate(-6.998 -1.588)"/></g><path class="h" d="M7.084,1.77h0v.084H6.99v.093h0v.14h.093v.047h0l.084.047h.093v.037l.187-.037h0V2.135h.084V2.088h0V1.994h.093V1.948L7.532,1.9h0V1.817l-.084-.093h0v-.14h0V1.63H7.355v.047h0V1.63l-.093-.047-.093.047v.047h0V1.63H7.084v.14Z" transform="translate(6.329 1.564)"/><g transform="translate(13.291 3.194)"><path class="i" d="M7.27,2.144H7.083V2.051H6.99V1.864h0V1.771h.093V1.584h.093v0h.187v0H7.55l-.093.093h0l.093.093h0l.093.187h0l-.093.093H7.457v.093H7.27Zm0,0h.187V2.051H7.55V1.958h.093L7.55,1.864h0l-.093-.093V1.677h0V1.584H7.364l.093.093H7.364V1.584H7.27v.093H7.177l-.093-.093h0v.187h0l-.093.093h0v.093h0l.093.093h0l.093.093H7.27Z" transform="translate(-6.99 -1.584)"/></g><g transform="translate(13.852 3.568)"><path class="a" d="M7,1.588Z" transform="translate(-6.996 -1.588)"/></g><g transform="translate(13.852 3.475)"><path class="a" d="M7,1.68v0Z" transform="translate(-6.996 -1.587)"/></g><path class="i" d="M6.99,1.809h.093V2h0V1.949h.084v.093h.187V1.949h.093V2h0V1.762h.084l-.084-.084V1.585h0v.093h0v.131h0v.047L7.355,1.9V2H7.261V1.949h0V1.856H7.168V1.762H7.084V1.716h.084l-.084-.037h0l.084-.047H7.084v.084H6.99v.093Z" transform="translate(6.329 1.703)"/><g transform="translate(13.291 3.288)"><path class="i" d="M7.177,2.052h0V1.959H7.083V1.772H6.99V1.678h.093v.093h0v.187h.093v.093Zm.187,0H7.27l.093-.093v.093h0V1.959h.093V1.865H7.364v.093H7.27l-.093-.093h0l-.093-.093h0V1.678h0l.093.093h0v.093H7.27v.093h.093V1.865h.093V1.772h0V1.678l-.093-.093h.093l.093.093.093.093H7.457v.187H7.364l.093.093Zm.093-.467v.093h0v.093H7.55l-.093-.093V1.585Z" transform="translate(-6.99 -1.585)"/></g><path class="j" d="M6.993,1.635h0V1.588h0v.047h.093v.047l-.093-.047v0Z" transform="translate(6.597 1.971)"/><g transform="translate(13.59 3.559)"><path class="i" d="M6.993,1.681V1.635h0V1.588h0v.047h0v.047Z" transform="translate(-6.993 -1.588)"/></g><path class="i" d="M7.272,1.632V1.67l-.093.047h0L7.086,1.67h0v.093h0l-.093-.047V1.67h.093V1.585h.093l-.093.047V1.67h.187Z" transform="translate(6.505 1.749)"/><g transform="translate(13.478 3.381)"><path class="i" d="M7.085,1.679H6.992V1.586h.28l-.093.093h0l-.093-.093v.093Zm0-.093H6.992l.093.093V1.586Z" transform="translate(-6.992 -1.586)"/></g><path class="j" d="M7.086,1.586h0v.047H6.992l.093-.047Z" transform="translate(6.505 1.832)"/><path class="j" d="M6.994,1.586h0v.047h0V1.586Z" transform="translate(6.689 1.832)"/><g transform="translate(13.497 3.288)"><path class="i" d="M6.992,1.632h0l.093-.047h0l-.093.047Z" transform="translate(-6.992 -1.585)"/></g><path class="i" d="M7.075,1.631H6.991V1.584h.084Z" transform="translate(6.421 1.61)"/><g transform="translate(13.413 3.148)"><path class="i" d="M7.075,1.677H6.991V1.583l.084.047v.047Z" transform="translate(-6.991 -1.583)"/></g><path class="i" d="M7.088,1.63V1.583h0V1.63h0Z" transform="translate(6.689 1.564)"/><g transform="translate(13.684 3.148)"><path class="a" d="M7.088,1.63V1.583h0V1.63h0Z" transform="translate(-6.994 -1.583)"/></g><path class="i" d="M7.179,1.631H6.992V1.584h.093l.093.047Z" transform="translate(6.505 1.61)"/><g transform="translate(13.497 3.194)"><path class="i" d="M6.992,1.631V1.584h.187v.047H6.992Z" transform="translate(-6.992 -1.584)"/></g><path class="i" d="M7.087,1.63H6.993V1.583Z" transform="translate(6.597 1.564)"/><g transform="translate(13.59 3.148)"><path class="a" d="M7.087,1.63H6.993V1.583Z" transform="translate(-6.993 -1.583)"/></g><path class="i" d="M7.086,1.583V1.63H6.992Z" transform="translate(6.505 1.564)"/><g transform="translate(13.497 3.148)"><path class="a" d="M7.086,1.583V1.63H6.992Z" transform="translate(-6.992 -1.583)"/></g><path class="i" d="M6.99,1.681l.093-.047L6.99,1.587v.093Z" transform="translate(6.329 1.925)"/><g transform="translate(13.319 3.512)"><path class="a" d="M6.99,1.681l.093-.047L6.99,1.587v.093Z" transform="translate(-6.99 -1.587)"/></g><path class="i" d="M6.991,1.681v0Z" transform="translate(6.421 1.971)"/><g transform="translate(13.319 3.559)"><path class="i" d="M7.084,1.681H6.99l.093-.093v.093h0v0Z" transform="translate(-6.99 -1.588)"/></g><path class="d" d="M7.005,3.819,7.1,2.044l.934-.467.654.747L8.313,4.006,7.005,3.819Z" transform="translate(7.687 0.964)"/><g transform="translate(14.692 2.541)"><path class="k" d="M8.313,4.006h0L7.005,3.819,7.1,2.044l.934-.467.654.747L8.313,4.006Zm-.28-2.429-.934.56L7.005,3.819l1.308.187.374-1.681-.654-.747Z" transform="translate(-7.005 -1.577)"/></g><path class="h" d="M7.088,1.777h0v.093h0l-.093.093h0v.084l.093.047h0v.047h0l.084.047h.093v.047l.187-.047h0V2.141h.084V2.095h.093V2h0V1.917h0l-.093-.093V1.73H7.452V1.684l.084-.047V1.59H7.452v.047h0v.047H7.358V1.637L7.265,1.59v.093H7.172V1.637H7.088v.14Z" transform="translate(6.689 2.193)"/><g transform="translate(13.665 3.755)"><path class="i" d="M7.274,2.244H7.087V2.15h0l-.093-.093V1.87h.093V1.777h0V1.683h0V1.59h0l.093.093h.093V1.59h.093v.093h0l.093-.093h.093v.093H7.461v.093h.093V1.87h.093v.187h0V2.15H7.461v.093H7.274Zm0,0h.187V2.15h.093l.093-.093h0l-.093-.093h0V1.87l-.093-.093h0V1.59h0v.093H7.368L7.274,1.59v.093H7.087l.093.093h0l-.093.093h0v.093H6.994v.093h.093V2.15h0l.093.093h.093Z" transform="translate(-6.994 -1.59)"/></g><g transform="translate(14.225 4.222)"><path class="a" d="M7,1.6Z" transform="translate(-7 -1.595)"/></g><g transform="translate(14.225 4.128)"><path class="a" d="M7.093,1.687,7,1.594Z" transform="translate(-7 -1.594)"/></g><path class="i" d="M6.994,1.825h.093V2h.084V1.956h0V2.05h.28V1.956h0V2h0v-.14l.084-.084h.093l-.093-.093-.084-.093h0v.093h0v.14h0v.084l-.093.047V2H7.265V1.956h0V1.863H7.172V1.825h0V1.779h0V1.732h0V1.685h0V1.639H7.088v.093h0l-.093.093Z" transform="translate(6.689 2.331)"/><g transform="translate(13.665 3.942)"><path class="i" d="M7.181,2.059h0V1.966h0v.093l-.093-.093V1.779H6.994l.093-.093h0V1.592h.093v.093H7.087l.093-.093H7.087v.187h0v.187h.093l.093.093Zm.187,0h0V1.966l.093.093h0l-.093-.093h.093V1.872h0l-.093.093H7.274V1.872H7.181V1.779H7.087V1.685h.093v.093h.093v.093h0v.093h.093V1.872h.093V1.779h0V1.592h.093v.093l.093.093H7.554l-.093.093v.093h0v.093Zm.093-.467h0v.187h.187l-.093-.093-.093-.093Z" transform="translate(-6.994 -1.592)"/></g><path class="j" d="M7,1.641H7V1.595H7v.047h.093v.047L7,1.641v0Z" transform="translate(6.957 2.599)"/><g transform="translate(13.954 4.194)"><path class="i" d="M7,1.688V1.641H7V1.595h.093v.047H7v.047Z" transform="translate(-6.997 -1.595)"/></g><path class="i" d="M7.276,1.639v.047l-.093.047h0V1.686H7.09v.047H7V1.686H7.09V1.592h.093l-.093.047v.047h.187Z" transform="translate(6.865 2.377)"/><g transform="translate(13.852 3.942)"><path class="i" d="M7.089,1.779H7V1.685h.093l.093-.093h0v.093h.093v.093H7.183V1.685l-.093.093Zm0-.093H7l.093.093V1.685Z" transform="translate(-6.996 -1.592)"/></g><path class="j" d="M7,1.593H7V1.64H7V1.593Z" transform="translate(6.957 2.47)"/><path class="j" d="M7,1.593h.093V1.64H7V1.593Z" transform="translate(7.05 2.47)"/><g transform="translate(13.861 3.923)"><path class="i" d="M7,1.639H7l.093-.047h0L7,1.639Z" transform="translate(-6.996 -1.592)"/></g><path class="i" d="M7.079,1.637h0L7,1.591h.084Z" transform="translate(6.782 2.239)"/><g transform="translate(13.777 3.783)"><path class="i" d="M7.079,1.684h0L7,1.59l.084.047v.047Z" transform="translate(-6.995 -1.59)"/></g><path class="i" d="M7,1.637V1.59H7v.047Z" transform="translate(7.142 2.193)"/><g transform="translate(14.141 3.783)"><path class="a" d="M7,1.637V1.59H7v.047Z" transform="translate(-6.999 -1.59)"/></g><path class="i" d="M7.091,1.637H7V1.591H7l.093.047Z" transform="translate(6.957 2.239)"/><g transform="translate(13.861 3.83)"><path class="i" d="M7,1.637l.093-.047h.093v.047H7Z" transform="translate(-6.996 -1.591)"/></g><path class="i" d="M7.091,1.637H7V1.59Z" transform="translate(6.957 2.193)"/><g transform="translate(13.954 3.783)"><path class="a" d="M7.091,1.637H7V1.59Z" transform="translate(-6.997 -1.59)"/></g><path class="i" d="M7,1.59v.047H7Z" transform="translate(6.957 2.193)"/><g transform="translate(13.954 3.783)"><path class="a" d="M7,1.59v.047H7Z" transform="translate(-6.997 -1.59)"/></g><path class="i" d="M6.994,1.678l.093-.047-.093-.037v.084Z" transform="translate(6.689 2.562)"/><g transform="translate(13.684 4.156)"><path class="a" d="M6.994,1.678l.093-.047-.093-.037v.084Z" transform="translate(-6.994 -1.594)"/></g><path class="i" d="M7,1.688v0Z" transform="translate(6.782 2.599)"/><g transform="translate(13.777 4.194)"><path class="i" d="M7,1.688H7v0H7v0Z" transform="translate(-6.995 -1.595)"/></g><path class="e" d="M7.007,1.6v.093H7.1V1.644Z" transform="translate(7.863 2.83)"/><g transform="translate(14.87 4.427)"><path class="l" d="M7.007,1.728V1.6l.093.047v.047h0v.037Z" transform="translate(-7.007 -1.597)"/></g><path class="e" d="M7.009,1.6v.093H7.1L7.2,1.645V1.6Z" transform="translate(8.038 2.96)"/><g transform="translate(15.047 4.558)"><path class="l" d="M7.1,1.692H7.009V1.6H7.2v.047h0L7.1,1.692Z" transform="translate(-7.009 -1.599)"/></g><path class="e" d="M7.106,1.6H7.013v.047H7.2V1.6Z" transform="translate(8.399 2.876)"/><g transform="translate(15.412 4.474)"><path class="l" d="M7.106,1.682H7.013V1.6H7.2v.047h0l-.093.037Z" transform="translate(-7.013 -1.598)"/></g><path class="e" d="M7.109,1.6l-.093.037v.047l.093.047V1.6Z" transform="translate(8.676 2.923)"/><g transform="translate(15.692 4.521)"><path class="l" d="M7.109,1.729H7.016V1.6l.093.037v.093Z" transform="translate(-7.016 -1.598)"/></g><path class="e" d="M7.009,1.67l.187.14.177-.047.093.047.187.047.271-.047V1.763h0l-.177.047L7.56,1.716h.093l.093-.084H7.56l-.093-.047H7.2l-.187.084Z" transform="translate(8.038 1.749)"/><g transform="translate(15.047 3.335)"><path class="m" d="M7.747,1.856l-.28-.047H7.2l-.187-.14L7.2,1.585h.271l.093.047h.187V1.67l-.187.047h.093l.093-.084h-.28l-.093-.047H7.2L7.1,1.67l.093.093h.177l.093.047h0l.187.047.271-.047V1.763l-.177.047L7.56,1.763V1.716h0v.047h.364V1.81l-.177.047Z" transform="translate(-7.009 -1.585)"/></g><path class="n" d="M7.01,1.586l.093.037h0V1.586Z" transform="translate(8.131 1.795)"/><g transform="translate(15.141 3.381)"><path class="a" d="M7.01,1.586l.093.037h0V1.586Z" transform="translate(-7.01 -1.586)"/></g><path class="n" d="M7.011,1.68v0Z" transform="translate(8.223 1.832)"/><g transform="translate(15.234 3.419)"><path class="a" d="M7.011,1.68v0Z" transform="translate(-7.011 -1.586)"/></g><path class="n" d="M7.012,1.585v0Z" transform="translate(8.316 1.749)"/><g transform="translate(15.328 3.335)"><path class="a" d="M7.012,1.585v0Z" transform="translate(-7.012 -1.585)"/></g><path class="n" d="M7.013,1.585V1.67l.093-.084Z" transform="translate(8.399 1.749)"/><g transform="translate(15.412 3.335)"><path class="a" d="M7.013,1.585V1.67l.093-.084Z" transform="translate(-7.013 -1.585)"/></g><path class="n" d="M7.013,1.68v0Z" transform="translate(8.399 1.832)"/><g transform="translate(15.412 3.419)"><path class="a" d="M7.013,1.68v0Z" transform="translate(-7.013 -1.586)"/></g><path class="n" d="M7.015,1.587v0Z" transform="translate(8.584 1.878)"/><g transform="translate(15.598 3.465)"><path class="a" d="M7.015,1.587v0Z" transform="translate(-7.015 -1.587)"/></g><path class="n" d="M7.015,1.67V1.586h0V1.67Z" transform="translate(8.584 1.795)"/><g transform="translate(15.598 3.381)"><path class="a" d="M7.015,1.67V1.586h0Z" transform="translate(-7.015 -1.586)"/></g><path class="n" d="M7.016,1.623V1.586h0v.037Z" transform="translate(8.676 1.795)"/><g transform="translate(15.692 3.381)"><rect class="a" height="0.037"/></g><path class="n" d="M7.016,1.587v.093h0V1.634h0Z" transform="translate(8.676 1.925)"/><g transform="translate(15.692 3.512)"><path class="o" d="M7.016,1.681h0V1.634h0v.047h0V1.634h.093l-.093.047Z" transform="translate(-7.016 -1.587)"/></g><rect class="n" width="0.023" height="0.023" transform="translate(15.774 3.559)"/><g transform="translate(15.774 3.559)"><rect class="a" width="0.023" height="0.023"/></g><path class="h" d="M7.184,1.586v.047l-.178-.047v.047l.093.093-.093.093v.131l.178-.037V2h0v.047h0L7.1,2.137v.093h0v.224l-.093.14.093.047L7.184,2.6V2.408l.093-.047.093.047L7.278,2.5v.224h.093V2.6l.093-.14h.084v0l.093-.047h.093l-.093.14V2.6h0l.093.047V2.548h0l.093-.093h.093v.234h0v.037l.084-.037V2.642L8.1,2.548V2.362h0V2.231l.093-.047V2.091h0V1.913H8.1v.037H7.735L7.642,2l-.093-.047H7.464L7.371,1.82l.177-.093H7.371Z" transform="translate(7.863 1.832)"/><g transform="translate(14.879 3.381)"><path class="p" d="M7.381,2.8H7.194l.093-.093V2.52h0V2.427H7.194v.187h0L7.1,2.707l-.093-.093h0L7.1,2.52v0H7.007v.093l.093.093V2.613h.093V2.427h.187l-.093.093V2.8h.093V2.613h0l.093-.093h0v.093H7.381V2.8Zm.56,0V2.427l-.187.187h0v.093H7.661V2.613h0l.093.093V2.613h0V2.52h.187V2.8l.093-.093h0l.093-.093V2.24h0l.093-.093h0V1.96H7.754l-.093.093H7.567L7.474,1.96l-.093-.093.187-.093H7.381l-.187-.187v.093h0V1.586l.187.187h.187l-.187.093.093.093h.093l.093.093.093-.093h.467v.187h0V2.24H8.128v.28l-.093.187h0L7.941,2.8Zm-.28-.187h0l.093-.187-.093.093V2.427l-.093.093V2.427h.187l-.093.187ZM7.1,2.427h0V2.24h.093v.093L7.1,2.427Zm0-.187V2.146h.093V2.053h0L7.1,2.146V2.24Zm.093-.187H7.1l.093-.093H7.007V1.866h0L7.1,1.773l-.093-.093V1.586l.093.093-.093-.093v.093l.093.093h0l-.093.093V1.96h.187v.093Z" transform="translate(-7.007 -1.586)"/></g><path class="q" d="M7.009,1.635H7.1l-.093-.047v.047Z" transform="translate(8.038 1.971)"/><g transform="translate(15.047 3.559)"><path class="q" d="M7.009,1.635h0V1.588h0v.047h0L7.1,1.588v.047Z" transform="translate(-7.009 -1.588)"/></g><path class="i" d="M7.1,1.685H7.009V1.592l.093.093Z" transform="translate(8.038 2.331)"/><g transform="translate(15.047 3.923)"><path class="a" d="M7.1,1.685H7.009V1.592Z" transform="translate(-7.009 -1.592)"/></g><path class="i" d="M7.012,1.685h0V1.592h0v.093Z" transform="translate(8.316 2.331)"/><g transform="translate(15.328 3.923)"><path class="a" d="M7.012,1.685h0V1.592h0Z" transform="translate(-7.012 -1.592)"/></g><path class="i" d="M7.013,1.685h0v0Z" transform="translate(8.399 2.331)"/><g transform="translate(15.412 3.923)"><path class="a" d="M7.013,1.685h0v0Z" transform="translate(-7.013 -1.592)"/></g><path class="i" d="M7.013,1.724h0l.093-.084v0l-.093.084Z" transform="translate(8.399 2.47)"/><g transform="translate(15.412 4.063)"><path class="i" d="M7.013,1.724h0V1.64l.093-.047h0V1.64l-.093.084h0l.093-.037V1.64h0l-.093.084Z" transform="translate(-7.013 -1.593)"/></g><path class="i" d="M7.015,1.733v0Z" transform="translate(8.584 2.424)"/><g transform="translate(15.598 4.016)"><path class="i" d="M7.015,1.733h0v0Z" transform="translate(-7.015 -1.593)"/></g><path class="i" d="M7.015,1.685v0Z" transform="translate(8.584 2.285)"/><g transform="translate(15.598 3.876)"><path class="a" d="M7.015,1.685v0Z" transform="translate(-7.015 -1.591)"/></g><path class="i" d="M7.109,1.685V1.639l-.093-.047h.093v.093Z" transform="translate(8.676 2.331)"/><g transform="translate(15.692 3.923)"><path class="a" d="M7.109,1.685V1.639l-.093-.047h.093v.093Z" transform="translate(-7.016 -1.592)"/></g><path class="i" d="M7.017,1.592H7.1v.14h.093L7.1,1.686l-.084-.093Z" transform="translate(8.768 2.377)"/><g transform="translate(15.785 3.97)"><path class="i" d="M7.1,1.779h0v-.14l-.084-.047h0l.084.047h0l.093.047L7.1,1.779Z" transform="translate(-7.017 -1.592)"/></g><path class="c" d="M7.2,1.591l.729.187.738.271-.458.775L7.656,2.6,7.02,2.413Z" transform="translate(9.036 2.239)"/><g transform="translate(16.093 3.848)"><path class="c" d="M8.234,2.805H8.141l-.56-.187h0l-.467-.187H7.02l.093-.841.747.187.747.28-.374.747ZM7.113,1.591l-.093.841h.093l.467.187h.093l.467.187.467-.747-.747-.28-.747-.187Z" transform="translate(-7.02 -1.591)"/></g><path class="e" d="M7.2,1.593l.645.177.728.28-.187.411-.728-.234L7.02,2.05Z" transform="translate(9.036 2.424)"/><g transform="translate(16.056 4.016)"><path class="l" d="M8.383,2.508h0l-.728-.28L7.02,2.05,7.2,1.593l.645.177.728.28-.728-.28L7.2,1.593,7.02,2.05l.636.177.728.234L8.57,2.05h0l-.187.411v.047Z" transform="translate(-7.02 -1.593)"/></g><path d="M7.021,1.632h.093l.093-.037v.037l.093.047.085.047.28.047.177.047v.047l.187.047h.178v.047L8.124,2l-.187-.037.093.131v.093H7.937V2.089h0L7.75,2h0l-.083.047h0L7.573,2h.093V1.959H7.75l-.083-.093h-.28v.047H7.021l.187-.047V1.818H7.021V1.772h0l.093.047V1.725H7.021V1.632Z" transform="translate(9.212 2.562)"/><g transform="translate(16.187 4.128)"><path d="M8.049,2.248H7.955V2.154h0l-.093-.093h.093v.187h.093V2.154l-.093-.093h.187l.093-.093H7.862V1.874l-.187-.093H7.3V1.687H7.208V1.594l-.093.093H7.021l.093.093h.093l-.187.093V1.781h0V1.687h.093l.093-.093v.093H7.3l.093.093h.28l.187.093h0l.187.093h.187l-.093.093H8.049v.187Zm-.28-.187H7.675V1.968h0v.093h.093Zm0-.093-.093-.093h-.28v.093h0V1.874h.28l.093.093Zm-.654,0,.093-.093h0l-.093.093Z" transform="translate(-7.021 -1.594)"/></g><path class="c" d="M7.212,1.691h.177L7.306,1.6h-.28v.047l.187.047Z" transform="translate(9.573 2.83)"/><g transform="translate(16.599 4.427)"><path d="M7.306,1.691H7.212l-.187-.047V1.6h.28l.083.093h0L7.306,1.6h-.28v.047h.093l.187.047h0Z" transform="translate(-7.025 -1.597)"/></g><path class="d" d="M7.346,4.006,6.972,2.324l.654-.747.841.467.187,1.775-1.308.187Z" transform="translate(4.638 0.964)"/><g transform="translate(11.61 2.541)"><path class="k" d="M7.346,4.006h0L6.972,2.324l.654-.747.841.467.187,1.775-1.308.187Zm.28-2.429-.654.747.374,1.681,1.308-.187L8.466,2.044l-.841-.467Z" transform="translate(-6.972 -1.577)"/></g><path class="h" d="M6.96,1.856,7.053,2V2.22l.177-.093.187.14V2.043L7.6,2l-.084-.14V1.678l-.187.037-.178-.131v.177Z" transform="translate(3.529 1.703)"/><g transform="translate(10.489 3.288)"><path class="r" d="M7.427,2.239,7.24,2.145l-.187.093v-.28L6.96,1.865l.187-.093V1.585l.187.093H7.52v.187l.093.093-.187.093v.187ZM7.24,2.145l.187.093V2.052l.187-.093L7.52,1.865V1.678H7.147v.093l-.187.093.093.093v.28l.187-.093Z" transform="translate(-6.96 -1.585)"/></g><path class="s" d="M6.96,1.588l.635.14-.177.047-.093-.093.093.271-.187-.093.093-.177-.271.271V1.728Z" transform="translate(3.529 1.971)"/><path class="r" d="M6.962,1.809l.178.14-.178-.364Z" transform="translate(3.714 1.703)"/><rect class="r" width="0.165" height="0.212" transform="translate(10.818 3.362)"/><path class="h" d="M7.121,1.631l.083.177L7.027,2l.27.047v.224l.187-.177.178.084L7.578,2l.177-.14-.177-.093-.093-.177-.093.14Z" transform="translate(9.758 1.657)"/><g transform="translate(16.747 3.288)"><path class="r" d="M7.307,2.239v-.28h-.28l.187-.187L7.12,1.585l.28.093.093-.093.093.093.187.093-.187.187.093.187-.187-.093-.187.187ZM7.12,1.585l.093.187-.187.187h.28v.187l.187-.093.187.093-.093-.187.187-.187-.187-.093-.093-.093L7.4,1.678l-.28-.093Z" transform="translate(-7.027 -1.585)"/></g><path class="r" d="M7.121,1.585l.541.542-.178-.084-.093-.187L7.3,2.22V2l.093-.14-.364.093.177-.14Z" transform="translate(9.758 1.703)"/><path class="r" d="M7.031,1.725V1.9l.093-.318Z" transform="translate(10.118 1.657)"/><path class="r" d="M7.218,1.586l-.187.14L7.4,1.68l-.177-.093Z" transform="translate(10.118 1.832)"/><path class="e" d="M6.972,1.862l.654-.187.841-.093.093.467H7.719l-.654.187Z" transform="translate(4.638 1.426)"/><g transform="translate(11.61 3.008)"><path class="l" d="M7.065,2.236l-.093-.28.654-.28.841-.093h0l.093.467H7.719l-.654.187Zm1.4-.654v.093H7.626l-.654.28.093.28.654-.187H8.56l-.093-.467Z" transform="translate(-6.972 -1.582)"/></g><path class="e" d="M6.974,1.778l.177.458L7.8,2.1,8.431,2V1.591H7.7l-.729.187Z" transform="translate(4.795 2.285)"/><g transform="translate(11.797 3.848)"><path class="l" d="M7.067,2.245h0l-.093-.467.654-.187h.747l.093.467-.747.093-.56.093Zm1.027-.654H7.628l-.654.187.187.467.56-.093.654-.093V1.591Z" transform="translate(-6.974 -1.591)"/></g><path class="c" d="M6.962,1.608H13.5v4.2a3.381,3.381,0,0,1-3.176,2.9,3.41,3.41,0,0,1-3.363-2.9Z" transform="translate(3.714 3.828)"/><g transform="translate(10.676 5.343)"><path class="e" d="M10.231,8.8A3.316,3.316,0,0,1,6.962,5.9V1.7L13.5,1.607V5.9a3.357,3.357,0,0,1-3.082,2.9ZM13.5,1.7H6.962V5.9a3.308,3.308,0,0,0,6.538,0V1.7Z" transform="translate(-6.962 -1.607)"/></g><path class="e" d="M6.964,1.609h6.258v4.11A3.277,3.277,0,0,1,10.14,8.427a3.143,3.143,0,0,1-3.176-2.8Z" transform="translate(3.899 3.921)"/><g transform="translate(10.769 5.529)"><path class="e" d="M10.139,8.427a3.281,3.281,0,0,1-3.176-2.8l.093-4.016h6.258v4.11a3.169,3.169,0,0,1-2.989,2.709Zm3.082-6.818L7.056,1.7V5.625a3.132,3.132,0,0,0,3.176,2.8,3.024,3.024,0,0,0,2.989-2.709V1.609Z" transform="translate(-6.963 -1.609)"/></g><rect class="c" width="1.186" height="1.317" transform="translate(12.133 5.614)"/><path class="c" d="M7.018,1.653V2.961h.56a2.483,2.483,0,0,0,.56-1.308Z" transform="translate(8.889 7.986)"/><g transform="translate(15.907 9.639)"><path class="c" d="M7.672,3.054l-.654-.093V1.653H8.139a3.036,3.036,0,0,1-.467,1.308v.093Zm-.654-1.4V2.961h.56a2.52,2.52,0,0,0,.56-1.308H7.018Z" transform="translate(-7.018 -1.653)"/></g><path class="c" d="M7,1.668V2.882l1.308-.56V1.668Z" transform="translate(7.595 9.372)"/><g transform="translate(14.599 11.04)"><path class="c" d="M7,2.882V1.668H8.312v.654L7,2.882ZM8.312,1.668H7V2.882a3.43,3.43,0,0,0,1.308-.56V1.668Z" transform="translate(-7.004 -1.668)"/></g><path class="c" d="M6.978,1.667v.682L8.164,2.9V1.667Z" transform="translate(5.155 9.326)"/><g transform="translate(12.171 11.04)"><path class="c" d="M8.1,2.882h0l-1.121-.56V1.668H8.1V2.882Zm0-1.214H6.978v.654l1.121.56V1.668Z" transform="translate(-6.978 -1.668)"/></g><path class="c" d="M6.964,1.653a1.892,1.892,0,0,0,.56,1.308h.747V1.653Z" transform="translate(3.899 7.986)"/><g transform="translate(10.863 9.639)"><path class="c" d="M8.272,2.961H7.524a2.135,2.135,0,0,1-.56-1.308H8.272V2.961Zm0-1.308H6.964a2.135,2.135,0,0,0,.56,1.308h.747V1.653Z" transform="translate(-6.964 -1.653)"/></g><rect class="c" width="1.28" height="1.373" transform="translate(10.854 6.931)"/><rect class="c" width="1.28" height="1.373" transform="translate(13.319 6.931)"/><rect class="c" width="1.27" height="1.364" transform="translate(14.599 5.567)"/><rect class="c" width="1.186" height="1.373" transform="translate(15.869 6.931)"/><rect class="c" width="1.186" height="1.317" transform="translate(12.133 8.304)"/><rect class="c" width="1.27" height="1.317" transform="translate(14.599 8.304)"/><rect class="c" width="1.28" height="1.373" transform="translate(13.319 9.621)"/><path class="i" d="M7.1,1.778V1.684L7.01,1.591l.093.14Z" transform="translate(8.131 2.239)"/><g transform="translate(15.141 3.83)"><path class="i" d="M7.1,1.778V1.731l-.093-.14.093.14v.047Z" transform="translate(-7.01 -1.591)"/></g></g></g></g></g></svg>