<svg xmlns="http://www.w3.org/2000/svg" xmlns:xlink="http://www.w3.org/1999/xlink" width="28" height="16.28" viewBox="0 0 28 16.28"><defs><style>.a{fill:none;}.b{clip-path:url(#a);}.c{fill:#fff;}.d{fill:#ea0020;}.e{fill:#3555e2;}.f{fill:#f8e72a;}</style><clipPath id="a"><rect class="a" width="28" height="16.28"/></clipPath></defs><g transform="translate(-4.375 -5.185)"><g transform="translate(4.376 5.185)"><g class="b"><rect class="c" width="28" height="16.28"/><rect class="d" width="28" height="5.489" transform="translate(0 10.791)"/><rect class="e" width="28" height="5.396" transform="translate(0 5.396)"/><g class="b"><path class="d" d="M4.627,5.218l-.187.094.187,2.435a2.559,2.559,0,0,0,.749,1.78l1.218.749h0l1.124-.749a2.662,2.662,0,0,0,.843-1.78l.094-2.435-.094-.094h0L8.468,7.747a3.209,3.209,0,0,1-.843,1.686l-1.03.656h0l-1.03-.656a3.209,3.209,0,0,1-.843-1.686L4.627,5.218h0" transform="translate(1.602 -2.089)"/><path class="e" d="M8.376,5.681a4.674,4.674,0,0,0-1.967-.468,4.674,4.674,0,0,0-1.967.468l.094,2.529A3.209,3.209,0,0,0,5.379,9.9l1.03.656h0L7.44,9.9a3.209,3.209,0,0,0,.843-1.686" transform="translate(1.787 -2.553)"/><path class="f" d="M4.779,5.411l.094-.094h-.14l-.048-.094L4.6,5.317H4.46l.094.094L4.46,5.6,4.6,5.5l.084.178L4.733,5.5l.14.094" transform="translate(3.502 -1.57)"/><path class="f" d="M4.782,5.4l.084-.094H4.736l-.047-.094L4.6,5.31H4.455l.094.094L4.455,5.5H4.6l.094.178L4.736,5.5h.131" transform="translate(2.955 -2.293)"/><path class="f" d="M4.795,5.4l.047-.094H4.7l-.047-.094-.047.094h-.14l.047.094L4.467,5.5h.14l.047.178L4.7,5.5h.141" transform="translate(4.086 -2.293)"/><path class="c" d="M7.649,6.871l-.824-1.1-.318.365-.459-.909-.5.909-.318-.365-.787,1.1.141.365.365.094.281-.094h.543l.272.094h0l.281-.094h.5l.281.094.365-.094.178-.365" transform="translate(2.139 -0.838)"/><path class="c" d="M4.448,5.255l.14.178h.459l.272-.084h0l.272.084h.553l.272-.084h0l.225.084H7.1l.141-.178H7.192l-.14.094L6.64,5.255h-.5L6,5.349l-.413-.094H5.047l-.094.094-.412-.094H4.448" transform="translate(2.325 1.33)"/><path class="c" d="M6.736,5.351l-.225.272-.918.553h0l-.955-.553-.187-.272h.328l.272-.094h0l.272.094h.553l.272-.094h0l.225.094h.365" transform="translate(2.593 1.599)"/></g></g></g></g></svg>