<svg xmlns="http://www.w3.org/2000/svg" width="25.499" height="25.5" viewBox="0 0 25.499 25.5"><defs><style>.a{fill:#fff;}</style></defs><g transform="translate(0 -0.001)"><path class="a" d="M12.389,5.838a6.543,6.543,0,1,0,6.543,6.543,6.542,6.542,0,0,0-6.543-6.543Zm0,10.789a4.247,4.247,0,1,1,4.247-4.247A4.245,4.245,0,0,1,12.389,16.627Z" transform="translate(0.365 0.365)"/><path class="a" d="M18.007.081c-2.346-.109-8.157-.1-10.5,0A7.62,7.62,0,0,0,2.152,2.143C-.3,4.6.013,7.9.013,12.745c0,4.96-.276,8.187,2.139,10.6,2.462,2.461,5.814,2.139,10.6,2.139,4.913,0,6.609,0,8.346-.669,2.362-.917,4.145-3.028,4.319-6.82.11-2.347.1-8.157,0-10.5C25.208,3.016,22.806.3,18.007.081ZM21.72,21.725c-1.608,1.608-3.838,1.464-9,1.464-5.312,0-7.443.079-9-1.48-1.79-1.782-1.466-4.643-1.466-8.981,0-5.87-.6-10.1,5.289-10.4C8.9,2.281,9.3,2.265,12.708,2.265l.048.032c5.662,0,10.1-.593,10.371,5.3.061,1.344.074,1.748.074,5.15,0,5.251.1,7.394-1.481,8.981Z" transform="translate(0 0)"/><circle class="a" cx="1.529" cy="1.529" r="1.529" transform="translate(18.027 4.416)"/></g></svg>