<?xml version="1.0" encoding="utf-8"?>
<!-- Generator: Adobe Illustrator 21.0.2, SVG Export Plug-In . SVG Version: 6.00 Build 0)  -->
<svg version="1.1" id="color" xmlns="http://www.w3.org/2000/svg" xmlns:xlink="http://www.w3.org/1999/xlink" x="0px" y="0px"
	 viewBox="0 0 200.8 37.1" style="enable-background:new 0 0 200.8 37.1;" xml:space="preserve">
<style type="text/css">
	.st0{fill:#FCB700;}
</style>
<g>
	<path class="st0" d="M35.4,13.4l-11-1.7L19.4,1.2c-0.4-0.8-1.7-0.8-2,0l-4.9,10.5l-11,1.7c-0.9,0.1-1.3,1.2-0.6,1.9l8,8.2L6.9,35.2
		c-0.2,0.9,0.8,1.6,1.7,1.2l9.9-5.4l9.9,5.5c0.8,0.4,1.8-0.2,1.7-1.2L28,23.6l8-8.2C36.6,14.7,36.3,13.6,35.4,13.4L35.4,13.4z"/>
	<path class="st0" d="M76.4,13.4l-11-1.7L60.4,1.2c-0.4-0.8-1.7-0.8-2,0l-4.9,10.5l-11,1.7c-0.9,0.1-1.3,1.2-0.6,1.9l8,8.2
		l-1.9,11.6c-0.2,0.9,0.8,1.6,1.7,1.2l9.9-5.4l9.9,5.5c0.8,0.4,1.8-0.2,1.7-1.2L69,23.6l8-8.2C77.7,14.7,77.3,13.6,76.4,13.4
		L76.4,13.4z"/>
	<path class="st0" d="M117.4,13.4l-11-1.7l-4.9-10.5c-0.4-0.8-1.7-0.8-2,0l-4.9,10.5l-11,1.7c-0.9,0.1-1.3,1.2-0.6,1.9l8,8.2
		l-1.9,11.6c-0.2,0.9,0.8,1.6,1.7,1.2l9.9-5.4l9.9,5.5c0.8,0.4,1.8-0.2,1.7-1.2L110,23.6l8-8.2C118.7,14.7,118.3,13.6,117.4,13.4
		L117.4,13.4z"/>
	<path class="st0" d="M158.4,13.4l-11-1.7l-4.9-10.5c-0.4-0.8-1.7-0.8-2,0l-4.9,10.5l-11,1.7c-0.9,0.1-1.3,1.2-0.6,1.9l8,8.2
		l-1.9,11.6c-0.2,0.9,0.8,1.6,1.7,1.2l9.9-5.4l9.9,5.5c0.8,0.4,1.8-0.2,1.7-1.2L151,23.6l8-8.2C159.7,14.7,159.3,13.6,158.4,13.4
		L158.4,13.4z"/>
	<path class="st0" d="M199.5,13.4l-11-1.7l-4.9-10.5c-0.4-0.8-1.7-0.8-2,0l-4.9,10.5l-11,1.7c-0.9,0.1-1.3,1.2-0.6,1.9l8,8.2
		l-1.9,11.6c-0.2,0.9,0.8,1.6,1.7,1.2l9.9-5.4l9.9,5.5c0.8,0.4,1.8-0.2,1.7-1.2l-1.9-11.6l8-8.2C200.7,14.7,200.4,13.6,199.5,13.4
		L199.5,13.4z"/>
</g>
</svg>
