<svg xmlns="http://www.w3.org/2000/svg" width="22.323" height="18.81" viewBox="0 0 22.323 18.81"><defs><style>.a{fill:#252525;}</style></defs><g transform="translate(0 -40.283)"><path class="a" d="M21.991,46.6a1.543,1.543,0,0,0-1.213-.582h-4.3l-2.331-5.338a.654.654,0,1,0-1.2.523l2.1,4.815H7.271l2.1-4.815a.654.654,0,1,0-1.2-.523L5.844,46.013h-4.3A1.542,1.542,0,0,0,.331,46.6a1.506,1.506,0,0,0-.293,1.281L2.334,57.9a1.532,1.532,0,0,0,1.506,1.189H18.482A1.532,1.532,0,0,0,19.988,57.9l2.3-10.028a1.506,1.506,0,0,0-.293-1.281Zm-3.509,11.19H3.841a.234.234,0,0,1-.231-.173l-2.3-10.028a.2.2,0,0,1,.041-.174.237.237,0,0,1,.19-.089H5.273l-.171.392a.654.654,0,1,0,1.2.524l.4-.916h8.923l.4.916a.654.654,0,0,0,1.2-.524l-.171-.392h3.728a.237.237,0,0,1,.19.089.2.2,0,0,1,.041.174l-2.3,10.028a.234.234,0,0,1-.231.173Z" transform="translate(0)"/><path class="a" d="M151.654,266.717a.654.654,0,0,0-.654.654v4.8a.654.654,0,1,0,1.308,0v-4.8A.654.654,0,0,0,151.654,266.717Z" transform="translate(-144.417 -216.562)"/><path class="a" d="M241.654,266.717a.654.654,0,0,0-.654.654v4.8a.654.654,0,1,0,1.308,0v-4.8A.654.654,0,0,0,241.654,266.717Z" transform="translate(-230.493 -216.562)"/><path class="a" d="M331.654,266.717a.654.654,0,0,0-.654.654v4.8a.654.654,0,1,0,1.308,0v-4.8A.654.654,0,0,0,331.654,266.717Z" transform="translate(-316.569 -216.562)"/></g></svg>