<svg xmlns="http://www.w3.org/2000/svg" width="24.696" height="20.81" viewBox="0 0 24.696 20.81"><defs><style>.a{fill:#fff;}</style></defs><g transform="translate(0 -40.283)"><path class="a" d="M24.33,47.266a1.707,1.707,0,0,0-1.342-.644H18.231l-2.579-5.906a.724.724,0,1,0-1.326.579l2.326,5.326H8.044L10.37,41.3a.724.724,0,1,0-1.326-.579L6.465,46.622H1.709a1.706,1.706,0,0,0-1.342.644,1.666,1.666,0,0,0-.324,1.417l2.54,11.094a1.7,1.7,0,0,0,1.666,1.316h16.2a1.7,1.7,0,0,0,1.666-1.316l2.54-11.094a1.666,1.666,0,0,0-.324-1.417Zm-3.882,12.38H4.249a.259.259,0,0,1-.256-.192L1.453,48.36a.221.221,0,0,1,.045-.192.263.263,0,0,1,.211-.1H5.833l-.19.434a.724.724,0,1,0,1.326.579l.442-1.013h9.872l.442,1.013a.724.724,0,0,0,1.326-.579l-.19-.434h4.124a.263.263,0,0,1,.211.1.221.221,0,0,1,.045.192L20.7,59.454a.259.259,0,0,1-.256.192Z" transform="translate(0)"/><path class="a" d="M151.724,266.717a.724.724,0,0,0-.724.724v5.306a.724.724,0,1,0,1.447,0v-5.306A.723.723,0,0,0,151.724,266.717Z" transform="translate(-143.717 -215.512)"/><path class="a" d="M241.724,266.717a.724.724,0,0,0-.724.724v5.306a.724.724,0,1,0,1.447,0v-5.306A.724.724,0,0,0,241.724,266.717Z" transform="translate(-229.375 -215.512)"/><path class="a" d="M331.723,266.717a.723.723,0,0,0-.723.724v5.306a.724.724,0,1,0,1.447,0v-5.306A.724.724,0,0,0,331.723,266.717Z" transform="translate(-315.034 -215.512)"/></g></svg>