<svg xmlns="http://www.w3.org/2000/svg" width="15.126" height="24.208" viewBox="0 0 15.126 24.208"><defs><style>.a{fill:#fff;}</style></defs><path class="a" d="M138.714,8.626a1.22,1.22,0,0,0-.966-.432h-5.215l2.819-7.013a.759.759,0,0,0-.163-.81A1.245,1.245,0,0,0,134.274,0h-5.183a1.136,1.136,0,0,0-1.078.628l-4.2,10.462a.759.759,0,0,0,.163.81,1.245,1.245,0,0,0,.915.371h5.1L128.634,23.79a.4.4,0,0,0,.345.4.529.529,0,0,0,.56-.194l9.22-14.49A.75.75,0,0,0,138.714,8.626Z" transform="translate(-123.755)"/></svg>