<svg xmlns="http://www.w3.org/2000/svg" width="31.174" height="25.5" viewBox="0 0 31.174 25.5"><defs><style>.a{fill:#fff;}</style></defs><g transform="translate(0.001)"><path class="a" d="M199.705,110.762l-6.887-4.07a1.174,1.174,0,0,0-1.252.023,1.379,1.379,0,0,0-.62,1.175v8.07a1.38,1.38,0,0,0,.616,1.173,1.175,1.175,0,0,0,1.248.031l6.887-4a1.42,1.42,0,0,0,.008-2.4Zm-6.933,4.183v-6.031l5.147,3.042Zm0,0" transform="translate(-179.321 -99.519)"/><path class="a" d="M30.944,6.018V6A8.1,8.1,0,0,0,29.568,2.1a4.9,4.9,0,0,0-3.36-1.7l-.155-.02L26,.368C21.878.045,15.654,0,15.592,0h-.011C15.518,0,9.294.045,5.136.368L5.081.374,4.935.393a4.793,4.793,0,0,0-3.34,1.754A8.483,8.483,0,0,0,.232,5.984l0,.034C.219,6.131,0,8.816,0,11.511V14.03c0,2.695.22,5.379.229,5.492l0,.017A8.016,8.016,0,0,0,1.6,23.4a5,5,0,0,0,3.472,1.677c.127.016.236.029.31.043l.072.011c2.38.245,9.84.365,10.157.37h.019c.062,0,6.286-.044,10.407-.368l.054-.006c.052-.007.111-.014.175-.021a4.677,4.677,0,0,0,3.311-1.711,8.482,8.482,0,0,0,1.363-3.837l0-.034c.009-.113.23-2.8.23-5.492V11.511c0-2.695-.22-5.379-.23-5.492Zm-1.6,8.011c0,2.494-.2,5.063-.221,5.3a6.6,6.6,0,0,1-.9,2.733,2.907,2.907,0,0,1-2.156,1.08l-.195.024c-3.986.311-9.975.359-10.251.361-.309,0-7.661-.126-9.968-.358-.118-.021-.246-.037-.381-.053a3.288,3.288,0,0,1-2.336-1.054l-.017-.02a5.982,5.982,0,0,1-.879-2.706c-.015-.178-.221-2.777-.221-5.307V11.511c0-2.492.2-5.058.221-5.3a6.458,6.458,0,0,1,.9-2.734,3.053,3.053,0,0,1,2.2-1.125l.149-.019c4.044-.313,10.076-.359,10.293-.361s6.246.048,10.255.361L26,2.355a3.16,3.16,0,0,1,2.237,1.094l.007.008A6.082,6.082,0,0,1,29.125,6.2c.014.168.221,2.773.221,5.308Zm0,0" transform="translate(0 0)"/></g></svg>