<?xml version="1.0" encoding="utf-8"?>
<!-- Generator: Adobe Illustrator 25.0.1, SVG Export Plug-In . SVG Version: 6.00 Build 0)  -->
<svg version="1.1" id="Layer_1" xmlns="http://www.w3.org/2000/svg" xmlns:xlink="http://www.w3.org/1999/xlink" x="0px" y="0px"
	 viewBox="0 0 64 64" style="enable-background:new 0 0 64 64;" xml:space="preserve">
<style type="text/css">
	.st0{fill:none;}
	.st1{fill:none;stroke:#EB2F2E;stroke-width:2;stroke-linecap:round;stroke-linejoin:round;}
</style>
<rect id="backgroundrect" class="st0" width="64" height="64"/>
<g>
	<g id="Easy_Replacement_Refund">
		<line id="svg_1" class="st1" x1="9" y1="16" x2="15" y2="16"/>
		<line id="svg_2" class="st1" x1="9" y1="32" x2="15" y2="32"/>
		<line id="svg_3" class="st1" x1="55" y1="16" x2="49" y2="16"/>
		<polyline id="svg_4" class="st1" points="45,36 59,36 59,12 5,12 5,36 37,36 		"/>
		<path id="svg_5" class="st1" d="M37,43v-7c0-2.2,1.8-4,4-4l0,0c2.2,0,4,1.8,4,4v10"/>
		<polyline id="svg_6" class="st1" points="37,43 37,36 19,36 19,46 		"/>
		<polyline id="svg_7" class="st1" points="45,46 42,56 22,56 19,46 		"/>
		<path id="svg_8" class="st1" d="M29,53L29,53c0-3.3,2.7-6,6-6h2"/>
		<line id="svg_9" class="st1" x1="55" y1="32" x2="49" y2="32"/>
		<rect id="svg_10" x="18" y="56" class="st1" width="27" height="6"/>
		<line id="svg_11" class="st1" x1="12" y1="2" x2="12" y2="8"/>
		<line id="svg_12" class="st1" x1="16" y1="2" x2="16" y2="5"/>
		<line id="svg_13" class="st1" x1="8" y1="5" x2="8" y2="8"/>
		<line id="svg_14" class="st1" x1="52" y1="2" x2="52" y2="8"/>
		<line id="svg_15" class="st1" x1="56" y1="5" x2="56" y2="8"/>
		<line id="svg_16" class="st1" x1="48" y1="2" x2="48" y2="5"/>
		<circle id="svg_17" class="st1" cx="32" cy="24" r="9"/>
		<path id="svg_18" class="st1" d="M35.6,29.2c-0.5,0.5-1.2,0.8-1.9,0.8c-2.1,0-3.8-2.7-3.8-6s1.7-6,3.8-6c0.7,0,1.4,0.3,1.9,0.8"/>
		<line id="svg_19" class="st1" x1="27.5" y1="22.5" x2="34.2" y2="22.5"/>
		<line id="svg_20" class="st1" x1="27.5" y1="25.5" x2="34.2" y2="25.5"/>
	</g>
</g>
</svg>
