<svg xmlns="http://www.w3.org/2000/svg" width="64" height="64" style=""><rect id="backgroundrect" width="100%" height="100%" x="0" y="0" fill="none" stroke="none"/><g class="currentLayer" style=""><title>Layer 1</title><g id="Fast_and_Quick_Delivery" data-name="Fast and Quick Delivery" class="selected" fill="#ffffff" fill-opacity="1" stroke-opacity="1" stroke="#fa6600"><path d="M39,17V36H20.6a6.98,6.98,0,0,0-7.2,0H6l9.46-19.86A1.9852,1.9852,0,0,1,17.26,15H37A2.0059,2.0059,0,0,1,39,17Z" style="stroke-linecap: round; stroke-linejoin: round; stroke-width: 2px;" id="svg_1" fill="#ffffff" fill-opacity="1" stroke="#fa6600"/><path d="M54,28H39V19h9.7a2,2,0,0,1,1.8276,1.1877Z" style="stroke-linecap: round; stroke-linejoin: round; stroke-width: 2px;" id="svg_2" fill="#ffffff" fill-opacity="1" stroke="#fa6600"/><path d="M60,32v4H51.6a6.98,6.98,0,0,0-7.2,0H39V28H56A3.9989,3.9989,0,0,1,60,32Z" style="stroke-linecap: round; stroke-linejoin: round; stroke-width: 2px;" id="svg_3" fill="#ffffff" fill-opacity="1" stroke="#fa6600"/><path d="M13.4,36A6.9767,6.9767,0,0,0,10,42H6V36Z" style="stroke-linecap: round; stroke-linejoin: round; stroke-width: 2px;" id="svg_4" fill="#ffffff" fill-opacity="1" stroke="#fa6600"/><path d="M44.4,36A6.9767,6.9767,0,0,0,41,42H24a6.9767,6.9767,0,0,0-3.4-6Z" style="stroke-linecap: round; stroke-linejoin: round; stroke-width: 2px;" id="svg_5" fill="#ffffff" fill-opacity="1" stroke="#fa6600"/><path d="M62,39a3.0045,3.0045,0,0,1-3,3H55a6.9767,6.9767,0,0,0-3.4-6H59A2.996,2.996,0,0,1,62,39Z" style="stroke-linecap: round; stroke-linejoin: round; stroke-width: 2px;" id="svg_6" fill="#ffffff" fill-opacity="1" stroke="#fa6600"/><path d="M20.6,36a6.98,6.98,0,0,0-7.2,0,7,7,0,1,0,7.2,0ZM17,45a3,3,0,1,1,3-3A3.0088,3.0088,0,0,1,17,45Z" style="stroke-linecap: round; stroke-linejoin: round; stroke-width: 2px;" id="svg_7" fill="#ffffff" fill-opacity="1" stroke="#fa6600"/><circle cx="17" cy="42" r="3" style="stroke-linecap: round; stroke-linejoin: round; stroke-width: 2px;" id="svg_8" fill="#ffffff" fill-opacity="1" stroke="#fa6600"/><path d="M51.6,36a6.98,6.98,0,0,0-7.2,0,7,7,0,1,0,7.2,0ZM48,45a3,3,0,1,1,3-3A3.0088,3.0088,0,0,1,48,45Z" style="stroke-linecap: round; stroke-linejoin: round; stroke-width: 2px;" id="svg_9" fill="#ffffff" fill-opacity="1" stroke="#fa6600"/><circle cx="48" cy="42" r="3" style="stroke-linecap: round; stroke-linejoin: round; stroke-width: 2px;" id="svg_10" fill="#ffffff" fill-opacity="1" stroke="#fa6600"/><line x1="2" y1="19" x2="19" y2="19" style="fill: none; stroke-linecap: round; stroke-linejoin: round; stroke-width: 2px;" id="svg_11" stroke="#fa6600"/><line x1="5" y1="23" x2="22" y2="23" style="fill: none; stroke-linecap: round; stroke-linejoin: round; stroke-width: 2px;" id="svg_12" stroke="#fa6600"/><line x1="2" y1="27" x2="19" y2="27" style="fill: none; stroke-linecap: round; stroke-linejoin: round; stroke-width: 2px;" id="svg_13" stroke="#fa6600"/><line x1="5" y1="31" x2="22" y2="31" style="fill: none; stroke-linecap: round; stroke-linejoin: round; stroke-width: 2px;" id="svg_14" stroke="#fa6600"/></g></g></svg>