<?xml version="1.0" encoding="utf-8"?>
<!-- Generator: Adobe Illustrator 25.0.1, SVG Export Plug-In . SVG Version: 6.00 Build 0)  -->
<svg version="1.1" id="Layer_1" xmlns="http://www.w3.org/2000/svg" xmlns:xlink="http://www.w3.org/1999/xlink" x="0px" y="0px"
	 viewBox="0 0 64 64" style="enable-background:new 0 0 64 64;" xml:space="preserve">
<style type="text/css">
	.st0{fill:none;}
	.st1{fill:#FFFFFF;stroke:#EB2F2E;stroke-width:2;stroke-linecap:round;stroke-linejoin:round;}
	.st2{fill:none;stroke:#EB2F2E;stroke-width:2;stroke-linecap:round;stroke-linejoin:round;}
</style>
<rect id="backgroundrect" class="st0" width="64" height="64"/>
<g>
	<g id="Fast_and_Quick_Delivery">
		<path id="svg_1" class="st1" d="M39,17v19H20.6c-2.2-1.3-5-1.3-7.2,0H6l9.5-19.9c0.3-0.7,1-1.1,1.8-1.1H37C38.1,15,39,15.9,39,17z
			"/>
		<path id="svg_2" class="st1" d="M54,28H39v-9h9.7c0.8,0,1.5,0.5,1.8,1.2L54,28z"/>
		<path id="svg_3" class="st1" d="M60,32v4h-8.4c-2.2-1.3-5-1.3-7.2,0H39v-8h17C58.2,28,60,29.8,60,32C60,32,60,32,60,32z"/>
		<path id="svg_4" class="st1" d="M13.4,36c-2.1,1.3-3.4,3.5-3.4,6H6v-6H13.4z"/>
		<path id="svg_5" class="st1" d="M44.4,36c-2.1,1.3-3.4,3.5-3.4,6H24c0-2.5-1.3-4.7-3.4-6H44.4z"/>
		<path id="svg_6" class="st1" d="M62,39c0,1.7-1.3,3-3,3h-4c0-2.5-1.3-4.7-3.4-6H59C60.7,36,62,37.3,62,39C62,39,62,39,62,39z"/>
		<path id="svg_7" class="st1" d="M20.6,36c-2.2-1.3-5-1.3-7.2,0c-3.3,2-4.4,6.3-2.4,9.6s6.3,4.4,9.6,2.4s4.4-6.3,2.4-9.6
			C22.4,37.4,21.6,36.6,20.6,36z M17,45c-1.7,0-3-1.3-3-3s1.3-3,3-3s3,1.3,3,3C20,43.7,18.7,45,17,45z"/>
		<circle id="svg_8" class="st1" cx="17" cy="42" r="3"/>
		<path id="svg_9" class="st1" d="M51.6,36c-2.2-1.3-5-1.3-7.2,0c-3.3,2-4.4,6.3-2.4,9.6s6.3,4.4,9.6,2.4s4.4-6.3,2.4-9.6
			C53.4,37.4,52.6,36.6,51.6,36z M48,45c-1.7,0-3-1.3-3-3s1.3-3,3-3s3,1.3,3,3C51,43.7,49.7,45,48,45z"/>
		<circle id="svg_10" class="st1" cx="48" cy="42" r="3"/>
		<line id="svg_11" class="st2" x1="2" y1="19" x2="19" y2="19"/>
		<line id="svg_12" class="st2" x1="5" y1="23" x2="22" y2="23"/>
		<line id="svg_13" class="st2" x1="2" y1="27" x2="19" y2="27"/>
		<line id="svg_14" class="st2" x1="5" y1="31" x2="22" y2="31"/>
	</g>
</g>
</svg>
