<?xml version="1.0" encoding="utf-8"?>
<!-- Generator: Adobe Illustrator 25.0.1, SVG Export Plug-In . SVG Version: 6.00 Build 0)  -->
<svg version="1.1" id="Layer_1" xmlns="http://www.w3.org/2000/svg" xmlns:xlink="http://www.w3.org/1999/xlink" x="0px" y="0px"
	 viewBox="0 0 64 64" style="enable-background:new 0 0 64 64;" xml:space="preserve">
<style type="text/css">
	.st0{fill:none;}
	.st1{fill:none;stroke:#EB2F2E;stroke-width:2;stroke-linecap:round;stroke-linejoin:round;}
</style>
<rect id="backgroundrect" class="st0" width="64" height="64"/>
<g>
	<g id="Safe_Purchase">
		<path id="svg_1" class="st1" d="M32,62L32,62c14.5-6.1,24-20.3,24-36V12C49,12,32,2,32,2S15,12,8,12v14C8,41.7,17.5,55.9,32,62z"
			/>
		<path id="svg_2" class="st1" d="M32,57.6C19.8,51.8,12,39.5,12,26V15.4c6.7-1.6,15.7-6.4,20-8.8c4.3,2.4,13.3,7.2,20,8.8V26
			C52,39.5,44.2,51.8,32,57.6z"/>
		<circle id="svg_3" class="st1" cx="32" cy="32" r="12"/>
		<path id="svg_4" class="st1" d="M36.8,38.9c-0.7,0.7-1.6,1.1-2.5,1.1c-2.8,0-5-3.6-5-8s2.2-8,5-8c0.9,0,1.8,0.4,2.5,1.1"/>
		<line id="svg_5" class="st1" x1="26" y1="30" x2="35" y2="30"/>
		<line id="svg_6" class="st1" x1="26" y1="34" x2="35" y2="34"/>
	</g>
</g>
</svg>
